<svg xmlns="http://www.w3.org/2000/svg" viewBox="0 0 25 32"><path d="M25.143 22.143q0 .482-.18 1.26t-.374 1.222q-.376.893-2.18 1.893-1.68.91-3.32.91-.483 0-.94-.062t-1.026-.223-.848-.26-.99-.365-.876-.32q-1.75-.626-3.125-1.483Q9 23.305 6.562 20.867t-3.848-4.723q-.857-1.375-1.482-3.125-.054-.162-.32-.876t-.367-.99-.26-.85T.064 9.28 0 8.34q0-1.643.91-3.32 1-1.805 1.894-2.18.446-.196 1.223-.375t1.26-.18q.25 0 .374.055.322.107.947 1.357.196.34.536.964t.625 1.135.554.955q.054.07.313.446t.384.634.124.51q0 .356-.51.892t-1.106.982-1.107.946-.508.82q0 .162.09.403t.15.366.25.428.206.34q1.357 2.445 3.107 4.195t4.196 3.107q.037.018.34.205t.43.25.365.152.402.09q.32 0 .82-.51t.947-1.107.982-1.107.893-.51q.25 0 .508.126t.634.383.446.313q.446.268.955.554t1.134.625.964.536q1.25.626 1.358.947.054.125.054.375z"/></svg>