<svg xmlns="http://www.w3.org/2000/svg" viewBox="0 0 32 32"><path d="M18.286 24.57v-2.856q0-.25-.16-.41t-.412-.162H16V12q0-.25-.16-.412t-.412-.16H9.714q-.25 0-.41.16t-.162.41v2.858q0 .25.16.41t.412.162h1.714v5.714H9.714q-.25 0-.41.16t-.162.412v2.857q0 .25.16.412t.412.16h8q.25 0 .41-.16t.162-.41zM16 8.57V5.715q0-.25-.16-.41t-.412-.162h-3.43q-.25 0-.41.16t-.16.412V8.57q0 .25.16.412t.41.16h3.43q.25 0 .41-.16t.162-.41zM27.43 16q0 3.732-1.84 6.884t-4.99 4.99-6.885 1.84-6.884-1.84-4.99-4.99T0 16t1.84-6.884 4.99-4.99 6.885-1.84 6.884 1.84 4.99 4.99T27.43 16z"/></svg>