<svg xmlns="http://www.w3.org/2000/svg" width="77" height="34"><g fill="none" fill-rule="evenodd"><path d="M3.087 23.205c.77.173 1.392.743 1.64 1.5.876.013 2.533.034 4.739.06.392-3.849 3.616-6.763 7.44-6.725 3.824.038 6.99 3.015 7.309 6.87 9.417.075 20.554.125 29.856.06.288-3.852 3.422-6.852 7.239-6.929 3.817-.078 7.067 2.792 7.508 6.63 1.595-.1 4.215-.387 5.182-.585.058-.547.079-1.098.061-1.649a1.303 1.303 0 0 1 .875-1.336l.011-.184c.116-.61.04-1.24-.214-1.805a5.472 5.472 0 0 1-.234-.5 6.581 6.581 0 0 0-1.346-2.064c-.265.085-.54.131-.818.135-1.519.088-3.949.22-3.949.22a1.292 1.292 0 0 1-1.302-1.01s-.52-1.054-.39-1.405c.13-.352.217-.615 1.215-.659l.421-.02c-.308-.106-.582-.216-.924-.316-4.334-1.272-5.408-1.543-6.13-1.723-.683-.172-1.056-.266-3.492-1.027a38.782 38.782 0 0 1-6.974-3.586 71.78 71.78 0 0 0-1.043-.621 17.49 17.49 0 0 1-.985-.637 23.796 23.796 0 0 0-9.877-4.024 96.315 96.315 0 0 0-18.226-.73l-2.008.05c-3.717.067-8.074.58-9.213 1.432A21.859 21.859 0 0 0 7.493 5.62C5.735 8.567 4.888 9.857 3.97 10.134l-.01.087v.002h1.63s.516.03.516.697a31.161 31.161 0 0 1-1.578 4.355l-.917.312c-.021.05-.046.098-.073.145l-.071.173a5.898 5.898 0 0 1-1.275 2.054 6.861 6.861 0 0 0 .22 3.947c.407 1.005.538 1.279.676 1.299zm9.005-17.533l.16-.272a2.314 2.314 0 0 1 1.968-1.458c.992-.153 3.494-.517 5.339-.597a80.601 80.601 0 0 0 2.719-.192c1.326-.107 2.695-.217 3.646-.228.968-.011 1.988-.043 2.762-.066.544-.017.966-.03 1.169-.03 2.846.05 5.682.36 8.472.93a25.984 25.984 0 0 1 8.334 3.206 28.877 28.877 0 0 1 5.88 4.093c.216.222.866.892.595 1.578-.275.692-1.262.81-2.089.836a62.15 62.15 0 0 0-.923.038c-.896.04-2.11.096-3.691.096-.702 0-1.476-.01-2.326-.038-2.532-.084-6.585-.432-9.007-.64-.91-.077-1.564-.134-1.778-.145-.417-.02-1.045-.094-1.648-.167-.513-.06-1.006-.12-1.318-.138-.29-.016-1.714-.042-3.377-.073-2.326-.044-4.963-.093-5.858-.137-.649-.032-1.456-.057-2.23-.08-1.079-.035-2.1-.066-2.534-.113-.132-.014-.283-.02-.446-.027a3.503 3.503 0 0 1-2.54-.85c-.323-.334-1.916-2.02-1.918-2.652a6.907 6.907 0 0 1 .639-2.874z"/><path d="M2.702 26.096c.164.22.276.476.328.747.098.463.5.796.97.803.098.001 2.167.03 5.524.069.579 3.596 3.642 6.25 7.257 6.285 3.614.035 6.728-2.558 7.375-6.142 6.382.05 13.562.09 20.432.09 3.306 0 6.527-.01 9.564-.032.678 3.585 3.822 6.155 7.442 6.082 3.62-.072 6.66-2.766 7.196-6.375 2.23-.044 4.445-.38 6.59-1.001.492-.398.673-1.099.684-2.883.533-.308.863-.877.866-1.495l.016-.258c.15-1-.014-2.021-.47-2.922-.044-.08-.088-.187-.143-.314-.561-1.296-1.879-4.332-8.37-6.23-4.388-1.283-5.476-1.555-6.204-1.738-.664-.165-1.025-.256-3.384-.99a38.395 38.395 0 0 1-6.537-3.378c-.422-.252-.788-.471-1.072-.635-.248-.143-.53-.335-.866-.56A25.692 25.692 0 0 0 39.276.905 98.25 98.25 0 0 0 20.64.145l-1.99.048c-1.357.025-8.228.229-10.368 1.823A14.514 14.514 0 0 0 5.79 5.58 32.081 32.081 0 0 1 3.47 9.165c-.88.193-1.505.98-1.5 1.886-.02.143-.046.79-.071 1.591-.03.957-.085 2.7-.151 3.17-.038.08-.079.178-.124.29-.18.512-.465.98-.835 1.377C-.542 18.82.1 22.454.624 23.743c.482 1.186.898 2.212 2.078 2.353zm19.58.4c0 3.025-2.433 5.477-5.434 5.477-3.001 0-5.435-2.452-5.435-5.476 0-3.025 2.432-5.478 5.434-5.479 3 .004 5.431 2.454 5.435 5.478zm33.739 0a5.479 5.479 0 0 1 3.355-5.062A5.405 5.405 0 0 1 65.3 22.62a5.51 5.51 0 0 1 1.178 5.97 5.435 5.435 0 0 1-5.022 3.382c-3-.003-5.431-2.453-5.435-5.477zM2.21 18.912a5.87 5.87 0 0 0 1.275-2.046l.07-.172c.028-.047.052-.095.073-.144a15.77 15.77 0 0 0 .28-3.844c.02-.667.036-1.214.07-1.496v-.002c.001-.026.005-.057.01-.088.918-.275 1.765-1.56 3.522-4.494a21.755 21.755 0 0 1 1.964-2.979c1.139-.848 5.494-1.36 9.21-1.427l2.007-.05a96.658 96.658 0 0 1 18.219.728 23.84 23.84 0 0 1 9.873 4.007c.38.255.704.472.984.633.277.16.633.372 1.043.619a38.824 38.824 0 0 0 6.971 3.57c2.435.758 2.808.851 3.492 1.022.72.18 1.795.45 6.127 1.716.341.1.615.21.923.314a11.793 11.793 0 0 1 4.822 2.728 6.55 6.55 0 0 1 1.345 2.056c.07.17.148.335.234.496.254.563.33 1.19.214 1.798l-.012.183c-.56.189-.92.737-.873 1.33.017.549-.003 1.097-.061 1.642-.967.197-3.587.483-5.18.582-.442-3.82-3.69-6.678-7.506-6.6-3.815.077-6.948 3.063-7.236 6.898-9.298.065-20.431.015-29.844-.059-.318-3.84-3.484-6.803-7.307-6.84-3.822-.038-7.044 2.863-7.437 6.695-2.205-.026-3.861-.047-4.737-.06a2.247 2.247 0 0 0-1.64-1.493c-.137-.02-.268-.293-.675-1.294a6.805 6.805 0 0 1-.22-3.93z" fill="#444" fill-rule="nonzero"/><path d="M17.001 23a3 3 0 1 0-.002 6 3 3 0 0 0 .002-6zm1.995 3a1.996 1.996 0 1 1-3.992 0 1.996 1.996 0 0 1 3.992 0zM65 26a3 3 0 1 0-6 0 3 3 0 0 0 6 0zm-2.999 1.996a1.996 1.996 0 1 1-.002-3.992 1.996 1.996 0 0 1 .002 3.992zM15.484 13.41c.164.006.316.013.449.027.437.047 1.464.08 2.55.114.778.025 1.59.05 2.242.083.902.045 3.554.095 5.894.14 1.674.031 3.107.058 3.397.075.315.018.81.079 1.327.14.606.075 1.239.15 1.658.171.215.011.873.069 1.788.148 2.437.212 6.514.567 9.062.653.856.028 1.634.039 2.34.039 1.591 0 2.812-.057 3.714-.098.352-.017.66-.03.929-.039.832-.026 1.824-.147 2.1-.853.273-.701-.38-1.385-.598-1.611A29.048 29.048 0 0 0 46.42 8.22a25.917 25.917 0 0 0-8.383-3.272A46.073 46.073 0 0 0 29.513 4c-.204 0-.629.013-1.176.03-.78.024-1.805.056-2.779.067-.957.012-2.334.124-3.668.234-1 .082-1.979.162-2.735.196-1.856.08-4.374.453-5.372.61a2.332 2.332 0 0 0-1.98 1.486l-.16.278A7.136 7.136 0 0 0 11 9.835c.002.646 1.605 2.366 1.929 2.707a3.492 3.492 0 0 0 2.555.867zM12.676 7.15c.4-.702.498-.868 1.26-.988.98-.153 3.455-.52 5.262-.598a82.979 82.979 0 0 0 2.773-.198c1.316-.108 2.676-.22 3.598-.23.697-.009 1.39-.027 2.032-.046l.214 7.666-1.176-.022c-2.218-.042-4.977-.095-5.866-.138-.654-.034-1.475-.06-2.26-.084-1.066-.034-2.074-.065-2.474-.109a8.551 8.551 0 0 0-.512-.032 2.643 2.643 0 0 1-1.875-.554 13.635 13.635 0 0 1-1.638-2.043 5.875 5.875 0 0 1 .494-2.336l.168-.288zm37.183 6.713c-1.287.06-3.23.148-5.976.058-2.52-.083-6.582-.437-9.009-.648a89.78 89.78 0 0 0-1.824-.15c-.403-.02-1.008-.095-1.589-.166-.54-.065-1.06-.128-1.39-.146-.15-.009-.609-.02-1.243-.034l-.215-7.717c.402-.012.736-.022.9-.022a45.93 45.93 0 0 1 8.298.922 24.737 24.737 0 0 1 8.1 3.158 28.324 28.324 0 0 1 5.703 4.01c.142.147.27.309.382.481-.373.177-.785.25-1.194.214-.273.008-.585.024-.943.04z" fill="#444" fill-rule="nonzero"/></g></svg>
