<svg width="60" height="60" xmlns="http://www.w3.org/2000/svg"><g fill="#444" fill-rule="evenodd"><path d="M59.637 17.791L30.39.107a.625.625 0 0 0-.243-.088.763.763 0 0 0-.56.088L.363 17.791a.746.746 0 0 0-.363.642v6.187a.752.752 0 0 0 1.13.647l4.401-2.571V59.25c0 .416.337.75.75.75h47.44a.75.75 0 0 0 .75-.75l-.002-36.554 4.4 2.572c.12.067.25.102.381.102a.748.748 0 0 0 .75-.75v-6.187a.746.746 0 0 0-.363-.642zM7.03 51.843h3.967l-.003 6.657H7.028l.003-6.657zm30.656 0h4.228V58.5h-4.228v-6.657zm9.592 0V58.5h-3.864v-6.657h3.864zM36.187 58.5H23.812V36.937A6.197 6.197 0 0 1 30 30.749a6.197 6.197 0 0 1 6.187 6.188V58.5zm-13.875 0H17.86v-6.657h4.453V58.5zm-5.953 0h-3.864v-6.657h3.864V58.5zm32.42 0v-6.657h4.193l-.003 6.657h-4.19zm4.19-8.157H37.688V36.937c0-4.24-3.449-7.688-7.688-7.688-4.24 0-7.687 3.449-7.687 7.688v13.406H7.03V21.816l22.96-13.423 22.98 13.426-.002 28.524zm5.531-27.03L30.366 6.878a.755.755 0 0 0-.756 0L1.5 23.313v-4.459L29.988 1.616 58.5 18.854v4.46z"/><path d="M18.25 29h-7.5a.763.763 0 0 0-.75.776v11.448c0 .43.337.776.75.776h7.5c.413 0 .75-.346.75-.776V29.776a.763.763 0 0 0-.75-.776zm-.75 11.448h-6v-9.896h6v9.896zM41.75 42h7.5c.413 0 .75-.346.75-.776V29.776a.763.763 0 0 0-.75-.776h-7.5a.763.763 0 0 0-.75.776v11.448c0 .43.334.776.75.776zm.75-11.448h6v9.896h-6v-9.896z"/></g></svg>
