<svg width="60" height="64" xmlns="http://www.w3.org/2000/svg"><g fill="#444" fill-rule="evenodd"><path d="M27.224 50a.772.772 0 0 0 .718-1.063l-5.445-13.451v-.003a.78.78 0 0 0-1.011-.427.772.772 0 0 0-.429 1.007l5.446 13.451v.003c.12.291.404.483.721.483z"/><path d="M23.739 55.324c-.222.602-.2 1.272.06 1.858l.7 1.578c.512 1.162 1.809 1.719 2.975 1.278l.815 1.846h-.003A3.53 3.53 0 0 0 31.501 64a3.38 3.38 0 0 0 1.374-.284c1.721-.758 2.558-2.769 1.901-4.57l-8.64-23.632a.78.78 0 0 0-.402-.466.758.758 0 0 0-1.042.4.82.82 0 0 0-.003.622l8.638 23.627c.371 1.017-.11 2.153-1.092 2.568-.98.414-2.103-.043-2.541-1.034l-1.128-2.562a.773.773 0 0 0-1.025-.397l-.538.255c-.2.094-.427.1-.632.02a.842.842 0 0 1-.46-.446l-.71-1.573a.86.86 0 0 1-.019-.647.837.837 0 0 1 .436-.472l.554-.255a.801.801 0 0 0 .382-1.051l-1.696-3.854v.003a.774.774 0 0 0-.43-.417.767.767 0 0 0-.592.02l-.563.26a.822.822 0 0 1-1.089-.425l-.698-1.579h-.003a.866.866 0 0 1 .416-1.119l.57-.267v.003a.799.799 0 0 0 .377-1.037l-1.408-3.197a.764.764 0 0 0-.986-.41l-.793.322a.825.825 0 0 1-1.07-.474l-.62-1.613v-.003a.864.864 0 0 1 .008-.645.828.828 0 0 1 .455-.449l.584-.238a.771.771 0 0 0 .43-.44.82.82 0 0 0-.014-.622l-.743-1.693a.766.766 0 0 0-.79-.46c-3.397.39-6.797-.727-9.344-3.061-2.547-2.337-4.004-5.677-4.002-9.181 0-3.502 1.458-6.841 4.008-9.176a.804.804 0 0 0 .03-1.087.756.756 0 0 0-1.059-.088c-2.832 2.59-4.475 6.276-4.53 10.163-.056 3.887 1.482 7.622 4.24 10.294 2.757 2.673 6.481 4.038 10.267 3.766l.188.426c-1.114.554-1.623 1.894-1.169 3.075l.62 1.613c.486 1.239 1.852 1.85 3.066 1.366l.116-.048.787 1.792h.003c-1.103.602-1.56 1.98-1.045 3.146l.699 1.582c.515 1.165 1.823 1.718 2.993 1.27l1.066 2.413h-.002a2.404 2.404 0 0 0-1.092 1.29z"/><path d="M38.01 23.875a.791.791 0 0 0 .19 1.095l19.413 13.828a2.01 2.01 0 0 1 .5 2.72 1.965 1.965 0 0 1-2.672.617l-2.357-1.453a.771.771 0 0 0-1.068.26l-.312.52H51.7a.821.821 0 0 1-1.14.282l-1.457-.896a.842.842 0 0 1-.278-1.149l.317-.53a.79.79 0 0 0-.256-1.078l-3.548-2.185a.763.763 0 0 0-.585-.096.793.793 0 0 0-.483.355l-.323.535v.003a.841.841 0 0 1-.51.38.83.83 0 0 1-.628-.099l-1.453-.9a.848.848 0 0 1-.376-.516.852.852 0 0 1 .097-.634l.33-.546a.79.79 0 0 0-.26-1.076l-2.937-1.814v-.002a.775.775 0 0 0-1.048.23l-.491.727.003-.003a.823.823 0 0 1-1.152.222l-1.417-.968a.85.85 0 0 1-.22-1.16l.354-.53h.003a.798.798 0 0 0 .117-.605.783.783 0 0 0-.354-.504l-1.557-.96a.77.77 0 0 0-.911.072 12.008 12.008 0 0 1-9.237 2.896 12.063 12.063 0 0 1-8.383-4.873 12.294 12.294 0 0 1-2.165-9.519 12.22 12.22 0 0 1 5.439-8.074h.002a.79.79 0 0 0 .235-1.084.769.769 0 0 0-1.071-.24h-.003a13.782 13.782 0 0 0-6.096 8.973 13.887 13.887 0 0 0 2.256 10.643 13.614 13.614 0 0 0 9.197 5.672 13.542 13.542 0 0 0 10.403-2.842l.39.243h.003a2.424 2.424 0 0 0 .73 3.188l1.412.968h-.003c1.09.744 2.571.46 3.313-.639l.072-.107 1.651 1.022a2.427 2.427 0 0 0 .87 3.183l1.456.895v-.002a2.365 2.365 0 0 0 3.188-.67l2.231 1.374a2.417 2.417 0 0 0 .876 3.162l1.442.902a2.369 2.369 0 0 0 3.179-.657l1.695 1.048h.003c.552.34 1.185.521 1.832.521a3.535 3.535 0 0 0 3.378-2.481 3.584 3.584 0 0 0-1.328-3.996L39.092 23.694h-.002a.776.776 0 0 0-1.08.18z"/><path d="M3.192 16.654a.791.791 0 0 0 .152-1.106 8.717 8.717 0 0 1-1.361-7.812A8.688 8.688 0 0 1 7.51 2.065a8.644 8.644 0 0 1 7.812 1.19 8.707 8.707 0 0 1 3.5 8.367 5.512 5.512 0 0 0-5.332 4.523 5.527 5.527 0 0 0 3.374 6.132 5.493 5.493 0 0 0 6.654-2.118 5.539 5.539 0 0 0-.77-6.964.786.786 0 0 0-1.113.014.793.793 0 0 0 .017 1.117 3.961 3.961 0 0 1 .609 4.888 3.925 3.925 0 0 1-4.614 1.683 3.95 3.95 0 0 1-2.66-4.141 3.947 3.947 0 0 1 3.435-3.522c-.391 1.1-1 2.113-1.792 2.97a.79.79 0 0 0 .606 1.344.79.79 0 0 0 .55-.275 10.28 10.28 0 0 0 2.2-10.151 12.195 12.195 0 0 1 8.357.876 12.266 12.266 0 0 1 5.82 6.084 12.316 12.316 0 0 1 .527 8.418h.003v.009a12.206 12.206 0 0 1-1.39 3.063.795.795 0 0 0 .226 1.08l12.246 8.215h.003a.784.784 0 0 0 1.09-.218.793.793 0 0 0-.217-1.095l-11.625-7.796c.535-.967.955-1.994 1.248-3.057 0-.017 0-.034.012-.054.85-3.15.569-6.503-.8-9.46A13.826 13.826 0 0 0 28.8 6.465a13.754 13.754 0 0 0-9.424-.815A10.214 10.214 0 0 0 4.805 1.564a10.286 10.286 0 0 0-4.64 6.87A10.29 10.29 0 0 0 2.1 16.501c.262.343.75.41 1.093.153z"/></g></svg>
