<svg width="55" height="55" xmlns="http://www.w3.org/2000/svg"><path d="M46.372 35.635c-3.79-1.194-7.818-1.505-9.428-2.12h-.003c-.281-.109-.466-.278-.661-.66-.17-.336-.314-.834-.408-1.46 1.04-1.073 1.944-2.311 2.71-3.632 2.375-4.113 3.53-9.098 3.53-13.05C42.112 6.598 35.562 0 27.504 0S12.887 6.596 12.887 14.713c0 3.95 1.156 8.937 3.534 13.05a18.668 18.668 0 0 0 2.573 3.492c-.077.687-.21 1.246-.375 1.617-.183.415-.354.57-.556.646-1.615.615-5.643.926-9.433 2.12C4.837 36.83 1.033 39.133.02 43.874a.96.96 0 0 0 .292.91c14.972 13.62 39.402 13.62 54.374 0a.958.958 0 0 0 .292-.91c-1.013-4.743-4.816-7.046-8.606-8.24zm-28.153-9.02C16.085 22.9 15 18.187 15 14.661 15 7.656 20.588 2 27.504 2 34.42 2 40 7.657 40 14.66c0 3.525-1.085 8.24-3.219 11.955C34.647 30.331 31.591 33 27.503 33c-4.092 0-7.151-2.668-9.284-6.385zM2 43.822c.986-3.505 3.853-5.156 7.193-6.193 3.5-1.086 7.274-1.272 9.544-2.125.003 0 .003 0 .003-.002.76-.29 1.294-.921 1.61-1.63.124-.274.223-.566.302-.872 1.922 1.46 4.209 2.372 6.852 2.372 2.593 0 4.844-.88 6.74-2.294.092.307.206.598.349.873.353.681.926 1.267 1.675 1.551h.002c2.268.853 6.04 1.039 9.54 2.125 3.337 1.036 6.204 2.688 7.19 6.192-14.107 12.24-36.893 12.24-51 .003z" fill="#444" fill-rule="evenodd"/></svg>
