<svg xmlns="http://www.w3.org/2000/svg" width="43" height="55"><g fill="#444" fill-rule="evenodd"><path d="M21.5 13c-4.68 0-8.5 3.583-8.5 8 0 4.405 3.807 8 8.5 8s8.5-3.583 8.5-8c0-4.405-3.82-8-8.5-8zm0 13.857c-3.428 0-6.223-2.631-6.223-5.857 0-3.226 2.795-5.857 6.223-5.857s6.223 2.63 6.223 5.857c0 3.226-2.795 5.857-6.223 5.857z"/><path d="M21.494 0C9.636 0 0 9.613 0 21.416 0 31.465 15.127 49.092 19.768 54.25a2.32 2.32 0 0 0 1.726.751 2.32 2.32 0 0 0 1.725-.75C29.173 47.578 43 31.03 43 21.404 42.988 9.589 33.352 0 21.494 0V0zm.085 52.796c-.024.025-.048.025-.085.025-.036 0-.06.012-.085-.025C12.102 42.457 2.187 28.777 2.187 21.404c0-10.605 8.664-19.237 19.307-19.237 10.644 0 19.307 8.62 19.307 19.237 0 9.129-14.714 26.331-19.221 31.392z"/></g></svg>
