<svg id="Layer_1" data-name="Layer 1" xmlns="http://www.w3.org/2000/svg" viewBox="0 0 30 30"><defs><style>.cls-1{fill:#fff;}</style></defs><path class="cls-1" d="M24.934 26.627a15.095 15.095 0 0 0 1.048-1.158l-6.3-6.305c-2.033 1.957-5.162-.953-6.528-2.32-1.37-1.367-4.28-4.497-2.324-6.53l-6.3-6.3a15.084 15.084 0 0 0-1.157 1.048C.613 7.82 4.89 13.573 10.658 19.34c5.766 5.768 11.518 10.043 14.276 7.285zM11.897 6.067l-3.2-3.2c-.527-.524-1.726-.573-3.47.626l6.177 6.18c1.83-2.257.493-3.605.493-3.605zm15.236 15.237l-3.203-3.2s-1.346-1.337-3.603.49l6.18 6.18c1.2-1.745 1.15-2.944.625-3.47z"/></svg>