<svg xmlns="http://www.w3.org/2000/svg" viewBox="0 0 28.17 35.18"><defs><style>.cls-1{fill:#fff;}.cls-2{fill:#444545;}</style></defs><title>arrow</title><g id="Layer_2" data-name="Layer 2"><g id="Layer_1-2" data-name="Layer 1"><g id="Layer_2-2" data-name="Layer 2"><g id="Layer_1-2-2" data-name="Layer 1-2"><path class="cls-1" d="M26.67,20H22.59V2.5A2.51,2.51,0,0,0,20.09,0h-12a2.5,2.5,0,0,0-2.5,2.5V20H1.5A1.5,1.5,0,0,0,.44,22.56L12.32,34.44a2.49,2.49,0,0,0,3.52,0h0L27.73,22.56A1.5,1.5,0,0,0,26.67,20Z"/><path class="cls-2" d="M26.67,20H22.59V2.51A2.51,2.51,0,0,0,20.09,0h-12a2.5,2.5,0,0,0-2.5,2.5V20H1.5A1.5,1.5,0,0,0,.44,22.57L12.32,34.45a2.49,2.49,0,0,0,3.52,0h0L27.73,22.57A1.5,1.5,0,0,0,26.67,20ZM27,21.86,15.15,33.74a1.53,1.53,0,0,1-2.12,0L1.15,21.86a.49.49,0,0,1,0-.68l0,0A.47.47,0,0,1,1.5,21H6.59V2.51A1.5,1.5,0,0,1,8.09,1h12a1.5,1.5,0,0,1,1.5,1.5V21h5.08a.5.5,0,0,1,.5.5.52.52,0,0,1-.14.35Z"/><path class="cls-2" d="M16.4,19.77H13.17V16.86h1.24a.89.89,0,0,0,.48-.08.54.54,0,0,0,.16-.73.49.49,0,0,0-.16-.16.89.89,0,0,0-.48-.08H13.17V14.63c0-1.26.66-1.92,1.74-1.92a2,2,0,0,1,1.19.37.94.94,0,0,0,.53.2A.62.62,0,0,0,17,13.1a.67.67,0,0,0,.18-.46.82.82,0,0,0-.44-.7,3,3,0,0,0-1.84-.52,3,3,0,0,0-3.18,2.77v1.62h-.31a.87.87,0,0,0-.48.08.52.52,0,0,0-.16.73.61.61,0,0,0,.16.16.87.87,0,0,0,.48.08h.31v3.31a.76.76,0,0,0,.6.89.71.71,0,0,0,.29,0H16.4a1.22,1.22,0,0,0,.6,0,.67.67,0,0,0,.19-.92.47.47,0,0,0-.19-.18A1,1,0,0,0,16.4,19.77Z"/></g></g></g></g></svg>