<svg xmlns="http://www.w3.org/2000/svg" viewBox="0 0 31.83 36.26"><defs><style>.cls-1{fill:none;}.cls-2{fill:#fff;}.cls-3{fill:#444545;}.cls-4{fill:#ee7935;}</style></defs><title>call</title><g id="Layer_2" data-name="Layer 2"><g id="Layer_1-2" data-name="Layer 1"><rect class="cls-1" width="31.83" height="36.26"/><ellipse class="cls-2" cx="15.78" cy="13.89" rx="8.43" ry="10.18"/><path class="cls-1" d="M25,18.33a2.09,2.09,0,0,1-1-.81,13.67,13.67,0,0,1-1.14,2.74A5.76,5.76,0,0,0,25,18.33Z"/><path class="cls-1" d="M26.25,11.13C25.62,5,21.83,1.38,15.82,1.38S6,5,5.39,11.13a2,2,0,0,1,1.36.46,1.64,1.64,0,0,1,.3.29c.46-7.59,5.62-8.78,8.77-8.78s8.25,1.17,8.75,8.66l.18-.17A2.09,2.09,0,0,1,26.25,11.13Z"/><path class="cls-1" d="M11.66,23.71A12.93,12.93,0,0,0,2.23,35.26H29.81a13,13,0,0,0-9.72-11.64,7.18,7.18,0,0,1-4.27,1.84A7.07,7.07,0,0,1,11.66,23.71Z"/><path class="cls-3" d="M20.92,22.84a10.21,10.21,0,0,1-.83.78,13,13,0,0,1,9.72,11.64H2.23a12.93,12.93,0,0,1,9.43-11.55,10.24,10.24,0,0,1-.85-.76A13.79,13.79,0,0,0,1.22,35.76v.5h29.6v-.5C30.82,29.79,26.68,24.72,20.92,22.84Z"/><path class="cls-3" d="M11.66,23.71a7.07,7.07,0,0,0,4.16,1.75,7.18,7.18,0,0,0,4.27-1.84,10.21,10.21,0,0,0,.83-.78,11.89,11.89,0,0,0,1-1.14A9.81,9.81,0,0,1,20.4,22a6.87,6.87,0,0,1-4.58,2.47C13,24.46,8,20.62,8,13,8,5.64,12.25,4.1,15.82,4.1s7.8,1.54,7.8,8.87a13.54,13.54,0,0,1-2.26,7.83,6.39,6.39,0,0,0,1.48-.54A13.67,13.67,0,0,0,24,17.52a2.12,2.12,0,0,1-.34-1.38L24,13a2.08,2.08,0,0,1,.6-1.25c-.5-7.49-5.63-8.66-8.75-8.66S7.51,4.29,7.05,11.88A2.05,2.05,0,0,1,7.53,13l.34,3.13a2.18,2.18,0,0,1-.26,1.25A12.66,12.66,0,0,0,10.81,23,10.24,10.24,0,0,0,11.66,23.71Z"/><path class="cls-3" d="M5.39,11.13C6,5,9.8,1.38,15.82,1.38S25.62,5,26.25,11.13h.05a2,2,0,0,1,1,.39C26.8,4.51,22.58.38,15.82.38s-10.94,4.1-11.47,11a2,2,0,0,1,.85-.29A1.2,1.2,0,0,1,5.39,11.13Z"/><path class="cls-3" d="M25.51,18.47a2.44,2.44,0,0,1-.53-.14,5.76,5.76,0,0,1-2.14,1.93,6.39,6.39,0,0,1-1.48.54,8.6,8.6,0,0,1-2.2.26h-.79a1.24,1.24,0,0,1,0,1h.8A10.19,10.19,0,0,0,20.4,22a9.81,9.81,0,0,0,1.51-.29,6.86,6.86,0,0,0,4.18-3.25,2,2,0,0,1-.35,0Z"/><path class="cls-4" d="M17.18,20.25H14.86a1.29,1.29,0,0,0,0,2.58h2.32a1.29,1.29,0,0,0,1.18-.77,1.24,1.24,0,0,0,0-1A1.28,1.28,0,0,0,17.18,20.25Zm0,1.58H14.86a.29.29,0,0,1,0-.58h2.32a.29.29,0,0,1,0,.58Z"/><ellipse class="cls-2" cx="5.48" cy="14.7" rx="1.57" ry="2.82"/><ellipse class="cls-2" cx="25.91" cy="14.8" rx="1.57" ry="2.82"/><path class="cls-3" d="M7.87,16.14,7.53,13a2.05,2.05,0,0,0-.48-1.13,1.64,1.64,0,0,0-.3-.29,2,2,0,0,0-1.36-.46,1.2,1.2,0,0,0-.19,0,2,2,0,0,0-.85.29,2.06,2.06,0,0,0-.57.49,2.11,2.11,0,0,0-.46,1.55l.34,3.13a2.12,2.12,0,0,0,4.21-.45Zm-3.22.34-.33-3.13a1.12,1.12,0,0,1,1-1.23h.12a1.12,1.12,0,0,1,1.11,1l.33,3.13a1.11,1.11,0,0,1-1,1.23,1.13,1.13,0,0,1-1.23-1Z"/><path class="cls-3" d="M26.25,11.13a2.09,2.09,0,0,0-1.5.46l-.18.17A2.08,2.08,0,0,0,24,13l-.33,3.13a2.12,2.12,0,1,0,4.21.45h0l.33-3.13a2.06,2.06,0,0,0-.46-1.55,2,2,0,0,0-.42-.39,2,2,0,0,0-1-.39Zm.6,5.35a1.12,1.12,0,1,1-2.22-.23h0L25,13.11a1.12,1.12,0,0,1,2.22.24Z"/></g></g></svg>