<svg xmlns="http://www.w3.org/2000/svg" viewBox="0 0 53.36 50.61"><defs><style>.cls-1{fill:none;}.cls-2{fill:#444545;}.cls-3{fill:#fff;}.cls-4{fill:#ed6d23;}</style></defs><title>hand</title><g id="Layer_2" data-name="Layer 2"><g id="Layer_1-2" data-name="Layer 1"><path class="cls-1" d="M39.8,32.51a8.8,8.8,0,0,0-5.13-1.59H27.14c-1.45,0-2.9,0-4.35,0a2,2,0,0,0-2.06,1.69,2.06,2.06,0,0,0,1.43,2.32,6.53,6.53,0,0,0,1.09.18l2.81.3,4.1.44a1.43,1.43,0,0,1,.69.33.86.86,0,0,1,.38.61.75.75,0,0,1-.25.63,1.81,1.81,0,0,1-.67.42l-9.4,2.48A4.88,4.88,0,0,1,17.76,40L4.43,34.64a2.65,2.65,0,0,0-1-.19,2,2,0,0,0-2.05,1.79,2.19,2.19,0,0,0,1.19,2.15L12.37,44q2.63,1.48,5.23,3a4.09,4.09,0,0,0,2.84.48c3.09-.5,6.18-1,9.26-1.46l4.9-.77c.94-.15,1.88-.31,2.83-.41a6.9,6.9,0,0,1,2.22.09c1,.21,2,.47,3,.74l1.21.31a5.3,5.3,0,0,0,1.05.14V36l-.46-.31Z"/><path class="cls-2" d="M27.15,30.92h0Z"/><polygon class="cls-2" points="34.65 30.92 30.31 30.92 30.73 30.92 34.65 30.92"/><path class="cls-2" d="M27.1,29.51h0Z"/><polygon class="cls-2" points="34.65 29.52 30.92 29.52 31.01 29.52 34.65 29.52"/><path class="cls-2" d="M43.87,45.92l-1.21-.31c-1-.27-2-.53-3-.74a6.9,6.9,0,0,0-2.22-.09c-1,.1-1.89.26-2.83.41L29.7,46l-9.26,1.46a4.09,4.09,0,0,1-2.84-.48q-2.61-1.5-5.23-3L2.61,38.39a2.19,2.19,0,0,1-1.19-2.15,2,2,0,0,1,2.05-1.79,2.65,2.65,0,0,1,1,.19L17.76,40a4.87,4.87,0,0,0,3.15.31l9.4-2.48a1.81,1.81,0,0,0,.67-.42.72.72,0,0,0,.24-.63.81.81,0,0,0-.37-.61,1.43,1.43,0,0,0-.69-.33l-4.1-.44-2.81-.3a6.53,6.53,0,0,1-1.09-.18,2.06,2.06,0,0,1-1.43-2.32,2,2,0,0,1,2.06-1.69c1.45,0,2.9,0,4.35,0h7.53a8.8,8.8,0,0,1,5.13,1.59l4.66,3.2.46.31v-1.7l-4.32-3a10.15,10.15,0,0,0-5.93-1.84H22.78a3.39,3.39,0,0,0-3.44,2.91,3.45,3.45,0,0,0,2.41,3.86,7.62,7.62,0,0,0,1.35.23l2.81.3,2,.21L20.56,39a3.58,3.58,0,0,1-2.28-.25L5,33.34a3.65,3.65,0,0,0-3.19.15,3.47,3.47,0,0,0,.15,6.12l9.77,5.56,5.22,3a5.35,5.35,0,0,0,2.73.73,6,6,0,0,0,1-.09l9.26-1.45,4.91-.77c.92-.15,1.83-.3,2.75-.41a6,6,0,0,1,1.79.08c1,.2,2,.46,2.93.72l1.22.31a6,6,0,0,0,1.4.18v-1.4A5.3,5.3,0,0,1,43.87,45.92Z"/><path class="cls-2" d="M51.25,29.51H47a2.12,2.12,0,0,0-2.11,2.11V48.5A2.12,2.12,0,0,0,47,50.61h4.22a2.11,2.11,0,0,0,2.11-2.11V31.62A2.11,2.11,0,0,0,51.25,29.51Zm.7,19a.7.7,0,0,1-.7.7H47a.7.7,0,0,1-.7-.7V31.62a.7.7,0,0,1,.7-.7h4.22a.7.7,0,0,1,.7.7Z"/><path class="cls-2" d="M28.51,26.7A13.35,13.35,0,1,0,15.16,13.35h0A13.37,13.37,0,0,0,28.51,26.7Zm0-25.29a11.95,11.95,0,1,1-12,11.94h0A12,12,0,0,1,28.51,1.41Z"/><circle class="cls-3" cx="28.51" cy="13.35" r="12.31"/><path class="cls-4" d="M24.57,13.81H25v4.35a1,1,0,0,0,.79,1.16.81.81,0,0,0,.38,0h5a1.48,1.48,0,0,0,.78-.12.86.86,0,0,0,.24-1.2.82.82,0,0,0-.24-.25,1.48,1.48,0,0,0-.78-.12H26.88V13.81H28.5a1.13,1.13,0,0,0,.63-.11.7.7,0,0,0,.2-1,.64.64,0,0,0-.2-.2,1.22,1.22,0,0,0-.63-.11H26.88V10.87c0-1.65.86-2.52,2.28-2.52a2.61,2.61,0,0,1,1.57.49,1.18,1.18,0,0,0,.69.26.73.73,0,0,0,.5-.23.89.89,0,0,0,.23-.62,1.07,1.07,0,0,0-.57-.91,4,4,0,0,0-2.42-.68A3.92,3.92,0,0,0,25,10.3c0,.14,0,.29,0,.43v1.69h-.4a1.28,1.28,0,0,0-.64.11.71.71,0,0,0-.2,1,.64.64,0,0,0,.2.2A1.18,1.18,0,0,0,24.57,13.81Z"/></g></g></svg>