<svg xmlns="http://www.w3.org/2000/svg" viewBox="0 0 22.85 30.25"><defs><style>.cls-1{fill:#4a4a4a;}</style></defs><title>your-policy-icon</title><g id="Layer_2" data-name="Layer 2"><g id="Layer_1-2" data-name="Layer 1"><path class="cls-1" d="M18.58,19H4.27a.25.25,0,0,0-.25.25.25.25,0,0,0,.25.25H18.58a.25.25,0,0,0,.25-.25A.25.25,0,0,0,18.58,19Z"/><path class="cls-1" d="M18.58,25.81H4.27a.25.25,0,0,0,0,.5H18.58a.25.25,0,0,0,0-.5Z"/><path class="cls-1" d="M4.3,22.78H18.55a.25.25,0,0,0,0-.5H4.3a.25.25,0,0,0,0,.5Z"/><path class="cls-1" d="M4.33,16.21H18.52a.25.25,0,0,0,.25-.25.25.25,0,0,0-.25-.25H4.33a.25.25,0,0,0-.25.25A.25.25,0,0,0,4.33,16.21Z"/><path class="cls-1" d="M19.75,0H.5A.5.5,0,0,0,0,.5H0V29.75a.5.5,0,0,0,.5.5H19.75a3.1,3.1,0,0,0,3.1-3.1V3.1A3.1,3.1,0,0,0,19.75,0Zm2.1,27.15a2.1,2.1,0,0,1-2.1,2.1H1V1H19.75a2.1,2.1,0,0,1,2.1,2.1Z"/><path class="cls-1" d="M6.55,13.11H16.3a.25.25,0,0,0,.25-.25h0a5.81,5.81,0,0,0-.73-2.57,5.15,5.15,0,0,0-2.16-2,4.82,4.82,0,0,0,.45-2c0-2.5-1.39-3.38-2.68-3.38s-2.69.88-2.69,3.38a4.83,4.83,0,0,0,.46,2,5,5,0,0,0-2.17,2,5.81,5.81,0,0,0-.73,2.57.25.25,0,0,0,.25.25Zm4.88-9.75c1.36,0,2.18,1.07,2.18,2.88a4.2,4.2,0,0,1-.5,2,2.69,2.69,0,0,1-1.68,1.53A2.87,2.87,0,0,1,9.75,8.28a4.17,4.17,0,0,1-.51-2C9.24,4.43,10.06,3.36,11.43,3.36Zm-4,7.18a4.5,4.5,0,0,1,2-1.82,3,3,0,0,0,2,1.6,2.92,2.92,0,0,0,2-1.59,4.43,4.43,0,0,1,2,1.81A5.38,5.38,0,0,1,16,12.61H6.82A5.38,5.38,0,0,1,7.46,10.54Z"/></g></g></svg>