<svg class="TrustPilotLogo" xmlns="http://www.w3.org/2000/svg" width="96" height="22"><g fill="none" fill-rule="evenodd"><path d="M25.008 8h9.749v1.668h-3.833v9.378h-2.108V9.668H25V8h.008zm9.332 3.048h1.802v1.543h.034c.06-.218.17-.428.332-.631.161-.203.356-.398.586-.561.23-.172.484-.304.765-.413.28-.102.57-.156.858-.156.221 0 .383.007.468.015.085.008.17.024.263.031v1.7a6.657 6.657 0 0 0-.416-.055 3.845 3.845 0 0 0-.417-.023c-.323 0-.629.062-.918.18a2.106 2.106 0 0 0-.748.521 2.596 2.596 0 0 0-.51.858 3.357 3.357 0 0 0-.186 1.177v3.804h-1.921v-7.99h.008zm13.939 7.998h-1.887V17.93h-.034c-.238.405-.587.725-1.054.967a3.083 3.083 0 0 1-1.428.366c-1.147 0-1.98-.257-2.49-.78-.51-.522-.765-1.31-.765-2.362v-5.074h1.92v4.903c0 .702.145 1.2.443 1.489.289.288.705.436 1.232.436.408 0 .74-.054 1.011-.171a1.696 1.696 0 0 0 1.02-1.146c.077-.265.11-.553.11-.865v-4.638h1.922v7.99zm3.272-2.565c.06.515.272.873.637 1.084.374.202.816.311 1.334.311.179 0 .383-.015.612-.039.23-.023.45-.078.646-.148.204-.07.366-.179.502-.32.127-.14.187-.319.178-.545a.728.728 0 0 0-.272-.553 1.957 1.957 0 0 0-.646-.351 6.95 6.95 0 0 0-.9-.226c-.34-.063-.68-.133-1.029-.203-.357-.07-.705-.164-1.037-.265a3.278 3.278 0 0 1-.892-.42 1.907 1.907 0 0 1-.63-.671c-.16-.273-.237-.608-.237-1.014 0-.436.119-.795.348-1.09.23-.297.527-.531.876-.71.357-.18.748-.304 1.181-.382.433-.07.85-.11 1.24-.11.451 0 .885.047 1.293.133.408.086.782.226 1.113.429.332.195.604.452.824.764.221.312.357.694.417 1.138h-2.006c-.093-.421-.297-.71-.629-.85a2.775 2.775 0 0 0-1.139-.218c-.136 0-.297.008-.484.031a2.852 2.852 0 0 0-.527.117c-.161.055-.297.14-.416.25-.11.109-.17.249-.17.428 0 .218.085.39.246.522.162.133.374.242.637.336.264.085.561.163.901.226.34.062.689.132 1.046.202.348.07.688.164 1.028.265.34.102.638.242.901.421.263.18.476.398.637.663.162.265.247.6.247.99 0 .475-.12.873-.357 1.208-.238.328-.544.6-.918.803a4.553 4.553 0 0 1-1.258.452c-.459.094-.918.14-1.368.14a6.302 6.302 0 0 1-1.53-.171 3.887 3.887 0 0 1-1.215-.514 2.626 2.626 0 0 1-.808-.866c-.195-.343-.297-.756-.314-1.231h1.938v-.016zm6.34-5.433h1.453V8.647h1.92v2.4H63v1.318h-1.734v4.272a4 4 0 0 0 .025.483c.017.133.06.25.12.343.059.094.152.164.28.21.127.047.289.07.51.07.136 0 .272 0 .408-.007a2.44 2.44 0 0 0 .408-.054v1.364c-.213.023-.425.039-.62.062a5.413 5.413 0 0 1-.621.031c-.51 0-.918-.047-1.224-.132-.306-.086-.552-.219-.722-.39a1.317 1.317 0 0 1-.357-.64 4.426 4.426 0 0 1-.11-.88V12.38h-1.454v-1.333h-.017zm6.468 0h1.818v1.083h.034a2.297 2.297 0 0 1 1.13-.997 4.012 4.012 0 0 1 1.573-.304c.688 0 1.283.109 1.793.335.51.218.935.522 1.275.912.34.39.586.842.756 1.356.17.515.255 1.068.255 1.653a5.3 5.3 0 0 1-.23 1.559 4.03 4.03 0 0 1-.687 1.34c-.306.39-.697.694-1.173.928-.476.234-1.029.35-1.675.35-.28 0-.56-.022-.841-.07a3.955 3.955 0 0 1-.807-.225 2.975 2.975 0 0 1-.714-.398c-.221-.164-.4-.35-.553-.561h-.034V22h-1.92V11.048zm6.714 4.007c0-.359-.051-.71-.153-1.053a2.738 2.738 0 0 0-.46-.904 2.28 2.28 0 0 0-.756-.631 2.273 2.273 0 0 0-1.045-.242c-.807 0-1.42.257-1.827.772-.408.514-.612 1.2-.612 2.058 0 .405.05.78.161 1.122.11.343.264.64.485.889.212.25.467.444.765.584.297.148.646.219 1.036.219.442 0 .808-.086 1.114-.25.306-.164.552-.382.748-.639a2.55 2.55 0 0 0 .425-.896c.076-.336.119-.679.119-1.03zM74.463 8h1.921v1.668h-1.92V8zm0 3.048h1.921v7.998h-1.92v-7.998zM78.102 8h1.921v11.046h-1.92V8zm7.81 11.264c-.696 0-1.317-.11-1.86-.32a4.139 4.139 0 0 1-1.386-.873 3.749 3.749 0 0 1-.858-1.333 4.76 4.76 0 0 1-.298-1.699c0-.608.102-1.17.298-1.684.195-.514.484-.959.858-1.333s.842-.662 1.386-.873c.543-.21 1.164-.32 1.86-.32.698 0 1.318.11 1.862.32.544.21 1.003.507 1.385.873.374.374.663.819.859 1.333.195.515.297 1.076.297 1.684a4.76 4.76 0 0 1-.297 1.7 3.749 3.749 0 0 1-.859 1.332c-.374.374-.841.663-1.385.873-.544.21-1.164.32-1.861.32zm0-1.395c.426 0 .8-.086 1.114-.25.315-.164.57-.382.774-.647.204-.265.348-.569.45-.904.093-.335.144-.678.144-1.029 0-.343-.05-.678-.144-1.021a2.57 2.57 0 0 0-.45-.904 2.287 2.287 0 0 0-.774-.64 2.389 2.389 0 0 0-1.113-.25c-.425 0-.8.087-1.114.25-.314.164-.569.382-.773.64a2.722 2.722 0 0 0-.45.904 3.847 3.847 0 0 0-.145 1.021c0 .35.051.694.145 1.029.093.335.246.64.45.904.204.265.459.483.773.647.315.172.689.25 1.114.25zm4.964-6.821h1.453V8.647h1.921v2.4h1.734v1.318h-1.734v4.272a4 4 0 0 0 .026.483c.017.133.06.25.119.343.06.094.153.164.28.21.128.047.29.07.51.07.136 0 .272 0 .408-.007a2.44 2.44 0 0 0 .408-.054v1.364c-.212.023-.425.039-.62.062a5.413 5.413 0 0 1-.62.031c-.51 0-.919-.047-1.225-.132-.306-.086-.552-.219-.722-.39a1.317 1.317 0 0 1-.357-.64 4.426 4.426 0 0 1-.11-.88V12.38h-1.454v-1.333h-.017z" fill="#fff" fill-rule="nonzero"/>
<path fill="#00B67A" d="M23 8.026h-8.783L11.504 0 8.783 8.026 0 8.017l7.113 4.966L4.39 21l7.113-4.957L18.61 21l-2.713-8.017z"/><path fill="#005128" d="M17 14.78L16.39 13 12 16z"/></g></svg>
