<svg xmlns="http://www.w3.org/2000/svg" xmlns:xlink="http://www.w3.org/1999/xlink" viewBox="0 0 300 100"><defs><linearGradient id="b" x1="17.17" y1="33.99" x2="17.17" y2="15.52" gradientUnits="userSpaceOnUse"><stop offset="0" stop-color="#e37a26"/><stop offset=".47" stop-color="#f9a21e"/></linearGradient><linearGradient id="c" x1="17.11" y1="14.21" x2="17.11" y2="1.82" gradientUnits="userSpaceOnUse"><stop offset="0" stop-color="#fff"/><stop offset="1" stop-color="#f9a21e"/></linearGradient><linearGradient id="a" x1="33.32" y1="1.6" x2="33.32" y2="1.63" gradientUnits="userSpaceOnUse"><stop offset="0" stop-color="#484848"/><stop offset="1"/></linearGradient><linearGradient id="d" x1="17.18" y1="1.75" x2="17.18" y2="33.86" xlink:href="#a"/></defs><path d="M44.74 46.56H9.2a8.2 8.2 0 0 0-8.2 8.2V90.3a8.2 8.2 0 0 0 8.2 8.2h35.54a8.2 8.2 0 0 0 8.2-8.2V54.76a8.2 8.2 0 0 0-8.2-8.2zm-7.38 42.53l-10.39-8.06-10.39 8.06 3.74-13.21-9.89-7.52h11.94l4.6-12.4 4.6 12.4h11.94l-9.88 7.52zm68.9-42.53H70.72a8.2 8.2 0 0 0-8.2 8.2V90.3a8.2 8.2 0 0 0 8.2 8.2h35.54a8.2 8.2 0 0 0 8.2-8.2V54.76a8.2 8.2 0 0 0-8.2-8.2zm-7.39 42.53L88.5 81.03l-10.4 8.06 3.74-13.21-9.9-7.52h11.94l4.6-12.4 4.6 12.4h11.94l-9.89 7.52zm68.9-42.53h-35.54a8.2 8.2 0 0 0-8.2 8.2V90.3a8.2 8.2 0 0 0 8.2 8.2h35.54a8.2 8.2 0 0 0 8.2-8.2V54.76a8.2 8.2 0 0 0-8.2-8.2zm-7.38 42.53L150 81.03l-10.39 8.06 3.74-13.21-9.9-7.52h11.95l4.6-12.4 4.6 12.4h11.94l-9.89 7.52zm68.89-42.53h-35.54a8.2 8.2 0 0 0-8.2 8.2V90.3a8.2 8.2 0 0 0 8.2 8.2h35.54a8.2 8.2 0 0 0 8.2-8.2V54.76a8.2 8.2 0 0 0-8.2-8.2zm-7.38 42.53l-10.39-8.06-10.39 8.06 3.74-13.21-9.89-7.52h11.94l4.6-12.4 4.6 12.4h11.94l-9.9 7.52z" fill="#85bb5d"/><path d="M290.8 46.56h-35.54a8.2 8.2 0 0 0-8.2 8.2V90.3a8.2 8.2 0 0 0 8.2 8.2h35.54a8.2 8.2 0 0 0 8.2-8.2V54.76a8.2 8.2 0 0 0-8.2-8.2zm-7.38 42.53l-10.4-8.06-10.38 8.06 3.74-13.21-9.9-7.52h11.95l4.6-12.4 4.6 12.4h11.93l-9.88 7.52z" fill="#d2d1d2"/><path d="M68.47 2.94a6.2 6.2 0 0 1-.05.86 1.91 1.91 0 0 1-.17.59.88.88 0 0 1-.29.32.72.72 0 0 1-.38.1h-9.46v29.17a.65.65 0 0 1-.1.37.69.69 0 0 1-.37.25 4.13 4.13 0 0 1-.69.16 8.48 8.48 0 0 1-1.07.06 8.58 8.58 0 0 1-1.07-.06 4.14 4.14 0 0 1-.7-.16.69.69 0 0 1-.36-.25.64.64 0 0 1-.1-.37V4.81h-9.48a.71.71 0 0 1-.38-.1.76.76 0 0 1-.27-.32 2.33 2.33 0 0 1-.17-.59 5.11 5.11 0 0 1-.06-.85 5.34 5.34 0 0 1 .06-.88 2.55 2.55 0 0 1 .17-.6.77.77 0 0 1 .27-.35.74.74 0 0 1 .38-.1h23.4a.75.75 0 0 1 .38.1.88.88 0 0 1 .28.34 2.09 2.09 0 0 1 .18.61 6.49 6.49 0 0 1 .05.87zm28.71 31.04a.72.72 0 0 1-.09.37.56.56 0 0 1-.33.26 2.83 2.83 0 0 1-.73.16 12.1 12.1 0 0 1-1.25.05 9.7 9.7 0 0 1-1.1-.05 2.58 2.58 0 0 1-.7-.17.89.89 0 0 1-.4-.33 1.91 1.91 0 0 1-.24-.52l-3.1-7.93c-.36-.9-.74-1.73-1.12-2.48a8.11 8.11 0 0 0-1.4-1.95 5.69 5.69 0 0 0-1.9-1.27 6.79 6.79 0 0 0-2.62-.46h-3v14.32a.57.57 0 0 1-.11.37.75.75 0 0 1-.36.25 3.76 3.76 0 0 1-.68.16 8.5 8.5 0 0 1-1.08.06 8.41 8.41 0 0 1-1.07-.06 4.15 4.15 0 0 1-.7-.16.71.71 0 0 1-.36-.25.67.67 0 0 1-.1-.37V2.84a1.67 1.67 0 0 1 .53-1.42 1.84 1.84 0 0 1 1.13-.4h7.15a29.73 29.73 0 0 1 3.64.21 12.83 12.83 0 0 1 3.45 1.07 8.13 8.13 0 0 1 2.5 1.84 7.44 7.44 0 0 1 1.53 2.56 9.5 9.5 0 0 1 .5 3.18 9.36 9.36 0 0 1-.46 3.03 7.31 7.31 0 0 1-1.31 2.37 8.68 8.68 0 0 1-2.05 1.78 13 13 0 0 1-2.68 1.28 6.28 6.28 0 0 1 1.5.91 8.23 8.23 0 0 1 1.27 1.34 13.2 13.2 0 0 1 1.1 1.8c.35.67.7 1.44 1.04 2.3l3.02 7.4c.24.62.4 1.06.47 1.31a2.58 2.58 0 0 1 .1.59zm-6.74-23.63a6.01 6.01 0 0 0-.88-3.34 5 5 0 0 0-2.97-1.96 8.65 8.65 0 0 0-1.47-.26c-.54-.05-1.26-.08-2.14-.08H79.2v11.34h4.37a9.76 9.76 0 0 0 3.05-.43 6.04 6.04 0 0 0 2.14-1.2 4.67 4.67 0 0 0 1.27-1.8 6.24 6.24 0 0 0 .4-2.27zm36.7 11.71a15.31 15.31 0 0 1-.88 5.39 10.94 10.94 0 0 1-2.52 4 10.63 10.63 0 0 1-4 2.48 15.63 15.63 0 0 1-5.34.85 14.95 14.95 0 0 1-5-.8 10.57 10.57 0 0 1-3.86-2.34 10.29 10.29 0 0 1-2.48-3.87 15.33 15.33 0 0 1-.87-5.37V1.84a.64.64 0 0 1 .1-.36.7.7 0 0 1 .36-.24 3.73 3.73 0 0 1 .66-.16 6.9 6.9 0 0 1 1.08-.06 7.04 7.04 0 0 1 1.05.06 3.45 3.45 0 0 1 .67.16.7.7 0 0 1 .35.24.65.65 0 0 1 .1.36v20.01a12.92 12.92 0 0 0 .56 4.02 7.61 7.61 0 0 0 1.63 2.85 6.7 6.7 0 0 0 2.56 1.72 9.33 9.33 0 0 0 3.37.58 9.48 9.48 0 0 0 3.4-.57 6.44 6.44 0 0 0 2.55-1.68 7.57 7.57 0 0 0 1.58-2.8 12.21 12.21 0 0 0 .55-3.88V1.84a.64.64 0 0 1 .1-.36.69.69 0 0 1 .36-.24 3.77 3.77 0 0 1 .68-.16 7.04 7.04 0 0 1 1.06-.06 6.73 6.73 0 0 1 1.04.06 3.37 3.37 0 0 1 .67.16.77.77 0 0 1 .36.24.6.6 0 0 1 .1.36zm25.23 3.05a9.55 9.55 0 0 1-.85 4.12 8.84 8.84 0 0 1-2.36 3.05 10.21 10.21 0 0 1-3.55 1.9 14.84 14.84 0 0 1-4.4.63 15.18 15.18 0 0 1-3.06-.29 16.18 16.18 0 0 1-2.5-.68 12.25 12.25 0 0 1-1.86-.83 4.78 4.78 0 0 1-1.04-.74 1.8 1.8 0 0 1-.43-.77 4.55 4.55 0 0 1-.14-1.26 6.78 6.78 0 0 1 .05-.93 2.14 2.14 0 0 1 .15-.6.67.67 0 0 1 .25-.31.71.71 0 0 1 .36-.1 2.1 2.1 0 0 1 1 .44 14.71 14.71 0 0 0 1.66.94 15.24 15.24 0 0 0 2.45.94 11.15 11.15 0 0 0 3.3.45 8.34 8.34 0 0 0 2.6-.38 6.24 6.24 0 0 0 2.04-1.07 4.75 4.75 0 0 0 1.3-1.72 5.64 5.64 0 0 0 .46-2.3 4.36 4.36 0 0 0-.63-2.39 6.4 6.4 0 0 0-1.67-1.73 14.7 14.7 0 0 0-2.38-1.37l-2.72-1.27a28.1 28.1 0 0 1-2.72-1.43 11.45 11.45 0 0 1-2.36-1.85 8.64 8.64 0 0 1-1.69-2.5 8.32 8.32 0 0 1-.64-3.44 8.55 8.55 0 0 1 .75-3.67 7.47 7.47 0 0 1 2.08-2.7 9.28 9.28 0 0 1 3.17-1.66 13.21 13.21 0 0 1 3.97-.57 13.38 13.38 0 0 1 2.2.19 15.56 15.56 0 0 1 2.08.5 12.15 12.15 0 0 1 1.74.72 4.42 4.42 0 0 1 1 .64 1.77 1.77 0 0 1 .31.37 1.28 1.28 0 0 1 .13.36 3.35 3.35 0 0 1 .08.52c.01.2.03.46.03.78a7.93 7.93 0 0 1-.05.82 2.85 2.85 0 0 1-.11.6.73.73 0 0 1-.22.35.5.5 0 0 1-.31.11 2.05 2.05 0 0 1-.88-.35c-.4-.24-.88-.5-1.46-.8a13.34 13.34 0 0 0-2.04-.82 9 9 0 0 0-2.65-.36 7.05 7.05 0 0 0-2.38.36 5.01 5.01 0 0 0-1.68.98 3.9 3.9 0 0 0-.99 1.44 4.86 4.86 0 0 0-.33 1.78 4.29 4.29 0 0 0 .64 2.36 6.44 6.44 0 0 0 1.68 1.75 15.1 15.1 0 0 0 2.4 1.4L144.9 16c.93.43 1.84.9 2.74 1.42a11.7 11.7 0 0 1 2.4 1.82 8.37 8.37 0 0 1 1.7 2.5 8.1 8.1 0 0 1 .64 3.37zm27.78-22.17a6.12 6.12 0 0 1-.06.85 1.85 1.85 0 0 1-.17.59.8.8 0 0 1-.28.32.69.69 0 0 1-.38.1h-9.45v29.13a.61.61 0 0 1-.1.36.68.68 0 0 1-.36.25 3.94 3.94 0 0 1-.68.15 8.53 8.53 0 0 1-2.14 0 3.87 3.87 0 0 1-.7-.15.7.7 0 0 1-.37-.25.64.64 0 0 1-.1-.36V4.8h-9.46a.7.7 0 0 1-.38-.1.72.72 0 0 1-.27-.33 2.58 2.58 0 0 1-.17-.58 5 5 0 0 1-.06-.86 5.24 5.24 0 0 1 .06-.86 2.8 2.8 0 0 1 .17-.62.75.75 0 0 1 .27-.34.74.74 0 0 1 .38-.1h23.36a.73.73 0 0 1 .38.1.83.83 0 0 1 .28.34 2 2 0 0 1 .17.62 6.42 6.42 0 0 1 .06.86z" fill="#231f20"/><path d="M206.13 10.87a11.84 11.84 0 0 1-.83 4.55 9.56 9.56 0 0 1-2.38 3.46 10.56 10.56 0 0 1-3.8 2.21 16.39 16.39 0 0 1-5.37.78h-3.82v12.11a.6.6 0 0 1-.12.37.76.76 0 0 1-.36.25 3.69 3.69 0 0 1-.68.16 9.06 9.06 0 0 1-2.15 0 3.97 3.97 0 0 1-.7-.16.67.67 0 0 1-.36-.25.63.63 0 0 1-.1-.37V2.95a1.81 1.81 0 0 1 .55-1.48 1.89 1.89 0 0 1 1.22-.44h7.2c.73 0 1.42.03 2.1.09a18.98 18.98 0 0 1 2.36.39 9.78 9.78 0 0 1 2.79 1.12 8.79 8.79 0 0 1 2.4 2.01 8.6 8.6 0 0 1 1.52 2.77 10.73 10.73 0 0 1 .53 3.47zm-4.7.36a6.93 6.93 0 0 0-.77-3.42 5.31 5.31 0 0 0-1.9-2.06 6.39 6.39 0 0 0-2.34-.86 16.29 16.29 0 0 0-2.36-.18h-4.13V18.2h4.03a9.37 9.37 0 0 0 3.36-.52 6.3 6.3 0 0 0 2.25-1.44 6.08 6.08 0 0 0 1.38-2.21 8.19 8.19 0 0 0 .48-2.8zm15.28 22.73a.63.63 0 0 1-.1.36.7.7 0 0 1-.36.25 3.8 3.8 0 0 1-.69.16 7.46 7.46 0 0 1-1.07.06 7.56 7.56 0 0 1-1.06-.06 3.76 3.76 0 0 1-.7-.16.7.7 0 0 1-.36-.25.65.65 0 0 1-.1-.36V1.85a.6.6 0 0 1 .11-.37.76.76 0 0 1 .4-.24 3.86 3.86 0 0 1 .7-.16 7.22 7.22 0 0 1 1.02-.06 7.54 7.54 0 0 1 1.07.06 3.5 3.5 0 0 1 .68.16.68.68 0 0 1 .37.24.63.63 0 0 1 .1.37zm25.71-1.09a6.28 6.28 0 0 1-.05.87 2.02 2.02 0 0 1-.17.6.82.82 0 0 1-.28.36.68.68 0 0 1-.4.12h-14.88a1.83 1.83 0 0 1-1.13-.4 1.68 1.68 0 0 1-.53-1.42V1.85a.63.63 0 0 1 .1-.36.7.7 0 0 1 .36-.25 3.87 3.87 0 0 1 .7-.16 8.7 8.7 0 0 1 2.15 0 3.75 3.75 0 0 1 .7.16.68.68 0 0 1 .35.25.63.63 0 0 1 .11.36v29.1h12.06a.68.68 0 0 1 .4.11.88.88 0 0 1 .29.34 1.73 1.73 0 0 1 .17.59 6.57 6.57 0 0 1 .05.88zm30.47-15.37a25.43 25.43 0 0 1-.94 7.16 15 15 0 0 1-2.8 5.43 12.22 12.22 0 0 1-4.67 3.45 16.55 16.55 0 0 1-6.56 1.2 16.92 16.92 0 0 1-6.39-1.1 11.28 11.28 0 0 1-4.46-3.21 13.65 13.65 0 0 1-2.62-5.22 26.98 26.98 0 0 1-.86-7.16 24.9 24.9 0 0 1 .94-7.04 14.65 14.65 0 0 1 2.81-5.38 12.4 12.4 0 0 1 4.68-3.42 16.57 16.57 0 0 1 6.56-1.2 16.74 16.74 0 0 1 6.3 1.1 11.49 11.49 0 0 1 4.47 3.17 13.57 13.57 0 0 1 2.66 5.17 25.89 25.89 0 0 1 .88 7.05zm-4.61.3a25.8 25.8 0 0 0-.5-5.18 12 12 0 0 0-1.64-4.15 7.95 7.95 0 0 0-3.07-2.75 10.39 10.39 0 0 0-4.76-.98 9.73 9.73 0 0 0-4.75 1.06 8.94 8.94 0 0 0-3.12 2.83 11.8 11.8 0 0 0-1.72 4.14 23.14 23.14 0 0 0-.52 4.98 27.37 27.37 0 0 0 .48 5.32 11.92 11.92 0 0 0 1.62 4.18 7.75 7.75 0 0 0 3.04 2.74 10.47 10.47 0 0 0 4.8.98 9.9 9.9 0 0 0 4.8-1.07 8.64 8.64 0 0 0 3.14-2.87 12.21 12.21 0 0 0 1.7-4.19 24.25 24.25 0 0 0 .5-5.04zM299 2.94a5.78 5.78 0 0 1-.05.86 1.71 1.71 0 0 1-.17.59.83.83 0 0 1-.29.32.7.7 0 0 1-.37.1h-9.46v29.17a.61.61 0 0 1-.12.37.66.66 0 0 1-.36.25 4.1 4.1 0 0 1-.69.16 8.39 8.39 0 0 1-1.07.06 8.54 8.54 0 0 1-1.07-.06 4.04 4.04 0 0 1-.7-.16.68.68 0 0 1-.36-.25.64.64 0 0 1-.1-.37V4.81h-9.47a.7.7 0 0 1-.37-.1.76.76 0 0 1-.28-.32 2.6 2.6 0 0 1-.17-.59 4.82 4.82 0 0 1-.06-.85 5.03 5.03 0 0 1 .06-.88 2.85 2.85 0 0 1 .17-.6.76.76 0 0 1 .27-.35.73.73 0 0 1 .38-.1h23.4a.73.73 0 0 1 .38.1.83.83 0 0 1 .28.34 1.86 1.86 0 0 1 .17.61 6.04 6.04 0 0 1 .05.87z" fill="#929497"/><path d="M1.03 1.6v14.29s10.79 5.15 16.28 14.36c0 0 2.42-20.34 16.03-28.65z" fill="#f9a21e"/><path d="M1 27.66V34h14.54A22.86 22.86 0 0 0 1 27.66zm18.44 6.32h13.9V15.52c-7.87 2.13-13.9 18.46-13.9 18.46z" fill="url(#b)"/><path d="M1.22 1.82H33s-5.22 1.83-10.84 12.2c0 0-12.3 1.25-20.91-2.5z" opacity=".5" fill="url(#c)"/><path d="M33.3 1.63l.04-.03" fill="url(#a)"/><path d="M17.31 30.25c-5.5-9.21-16.28-14.36-16.28-14.36v11.78a22.88 22.88 0 0 1 14.5 6.32l3.9-.01s6.03-16.33 13.9-18.46V1.62h-.03C19.73 9.96 17.31 30.26 17.31 30.26z" fill="url(#d)"/></svg>
