<svg xmlns="http://www.w3.org/2000/svg" viewBox="0 0 486.4 34.2"><path d="M334.6 1.6h-21.2a5 5 0 0 0-4.9 4.9v21.2a5 5 0 0 0 4.9 4.9h21.2a5 5 0 0 0 4.9-4.9V6.5a5 5 0 0 0-4.9-4.9zM330.2 27l-6.2-4.8-6.2 4.8 2.2-7.9-5.9-4.5h7.1l2.7-7.4 2.7 7.4h7.1l-5.9 4.5 2.4 7.9zm41.1-25.4h-21.2a5 5 0 0 0-4.9 4.9v21.2a5 5 0 0 0 4.9 4.9h21.2a5 5 0 0 0 4.9-4.9V6.5a5 5 0 0 0-4.9-4.9zM366.9 27l-6.2-4.8-6.2 4.8 2.2-7.9-5.9-4.5h7.1l2.7-7.4 2.7 7.4h7.1l-5.9 4.5 2.4 7.9zM408 1.6h-21.2a5 5 0 0 0-4.9 4.9v21.2a5 5 0 0 0 4.9 4.9H408a5 5 0 0 0 4.9-4.9V6.5a5 5 0 0 0-4.9-4.9zM403.6 27l-6.2-4.8-6.2 4.8 2.2-7.9-5.9-4.5h7.1l2.7-7.4 2.7 7.4h7.1l-5.9 4.5 2.4 7.9zm41.2-25.4h-21.2a5 5 0 0 0-4.9 4.9v21.2a5 5 0 0 0 4.9 4.9h21.2a5 5 0 0 0 4.9-4.9V6.5a5 5 0 0 0-4.9-4.9zM440.3 27l-6.2-4.8-6.2 4.8 2.2-7.9-5.9-4.5h7.1l2.7-7.4 2.7 7.4h7.1l-5.9 4.5 2.4 7.9z" fill="#85bb5d"/><path d="M481.5 1.6h-21.2a5 5 0 0 0-4.9 4.9v21.2a5 5 0 0 0 4.9 4.9h21.2a5 5 0 0 0 4.9-4.9V6.5a5 5 0 0 0-4.9-4.9zM477.1 27l-6.2-4.8-6.2 4.8 2.2-7.9-5.9-4.5h7.1l2.7-7.4 2.7 7.4h7.1l-5.9 4.5 2.4 7.9z" fill="#d2d1d2"/><path d="M67.5 2.2l-.1.9-.2.6-.3.3-.4.1H57v29.2l-.1.4-.4.2-.7.2-1.1.1-1.1-.1-.7-.2a.8.8 0 0 1-.4-.2l.2-.4V4.1h-9.5l-.4-.1-.3-.3-.2-.6-.1-.9.1-.9.2-.6.3-.4c.2.1.3 0 .4 0h23.4l.4.1.3.3.2.6v.9zm28.7 31.1l-.1.4-.3.3-.7.2h-2.3l-.7-.2-.4-.3-.2-.5-3.1-7.9-1.1-2.5c-.4-.7-.8-1.4-1.4-2-.5-.5-1.2-1-1.9-1.3-.8-.3-1.7-.5-2.6-.5h-3v14.3l-.1.4-.4.2-.7.2-1.1.1-1.1-.1-.7-.2a.8.8 0 0 1-.4-.2l-.1-.4V2.1c-.1-.5.1-1.1.5-1.4.3-.2.7-.4 1.1-.4h7.2l3.6.2c1.2.2 2.4.6 3.4 1.1.9.4 1.8 1.1 2.5 1.8S93.3 5 93.6 6s.5 2.1.5 3.2c0 1-.1 2.1-.5 3a7 7 0 0 1-1.3 2.4c-1.3 1.4-3 2.5-4.8 3.1l1.5.9c1 .8 1.9 1.9 2.4 3.1l1 2.3 3 7.4.5 1.3c.3.2.3.4.3.6zM89.5 9.7c0-1.2-.3-2.3-.9-3.3-.7-1-1.8-1.7-3-2l-1.5-.3L82 4h-3.8v11.3h4.4c1 0 2.1-.1 3.1-.4a5.6 5.6 0 0 0 3.4-3c.2-.7.4-1.5.4-2.2zm36.7 11.7c0 1.8-.3 3.7-.9 5.4a10 10 0 0 1-6.5 6.5c-3.3 1.1-7 1.1-10.3 0-1.4-.5-2.8-1.3-3.9-2.3a10 10 0 0 1-2.5-3.9c-.6-1.7-.9-3.5-.9-5.4V1.1l.1-.4.4-.2.7-.2 1.1-.1 1.1.1.7.2.3.2.1.4v20c0 1.4.2 2.7.6 4 .3 1.1.9 2 1.6 2.9.7.8 1.6 1.4 2.6 1.7 2.2.8 4.6.8 6.8 0 1-.3 1.8-.9 2.6-1.7.7-.8 1.3-1.8 1.6-2.8.4-1.3.6-2.6.6-3.9V1.1l.1-.4.4-.2.7-.2 1.1-.1 1 .1.7.2.4.2.1.4-.4 20.3zm25.2 3a9 9 0 0 1-3.3 7.1c-1 .9-2.3 1.5-3.6 1.9-4.4 1.2-9.1.5-12.9-1.9-.2-.2-.4-.5-.4-.8-.1-.4-.2-.8-.1-1.3l.1-.9.1-.6.2-.3.4-.1 1 .4c.5.3 1.1.7 1.7.9l2.4.9c1.1.3 2.2.5 3.3.5.9 0 1.8-.1 2.6-.4.7-.2 1.4-.6 2-1.1 1.2-1 1.8-2.5 1.8-4a5 5 0 0 0-.6-2.4c-.4-.7-1-1.3-1.7-1.7-.7-.5-1.5-1-2.4-1.4l-2.7-1.3-2.7-1.4a8.8 8.8 0 0 1-2.4-1.9 8.5 8.5 0 0 1-1.7-2.5 6.6 6.6 0 0 1-.6-3.4 8 8 0 0 1 2.9-6.4c.9-.8 2-1.4 3.2-1.7 2-.6 4.1-.8 6.2-.4l2.1.5c1 .3 1.9.7 2.7 1.3l.3.4.1.4.1.5v.8l-.1.8-.1.6-.2.3-.3.1-.9-.3-1.5-.8-2-.8a8.5 8.5 0 0 0-5 0 4.6 4.6 0 0 0-2.7 2.4l-.3 1.8c0 .8.2 1.7.6 2.4.4.7 1 1.3 1.7 1.8l2.4 1.4 2.8 1.3 2.7 1.4c.9.5 1.7 1.1 2.4 1.8a8.5 8.5 0 0 1 2.4 6.1zm27.8-22.2l-.1.8-.2.6-.3.3-.4.1h-9.4v29.1l-.1.4-.4.2-.7.2h-2.1l-.7-.2a.8.8 0 0 1-.4-.2l-.1-.4v-29h-9.5l-.4-.1-.3-.3-.2-.6-.1-.9.1-.9.2-.6c.1-.1.1-.3.3-.3l.5-.1h23.4l.4.1.3.3.2.6v.9z" fill="#231f20"/><path d="M205.2 10.2c0 1.6-.3 3.1-.8 4.6a9.2 9.2 0 0 1-2.4 3.5c-1.1 1-2.4 1.7-3.8 2.2-1.7.6-3.6.8-5.4.8H189v12l-.1.4-.4.2-.7.2h-2.1l-.7-.2a.8.8 0 0 1-.4-.2l-.1-.4v-31c-.1-.6.1-1.1.6-1.5.3-.3.8-.4 1.2-.4h7.2l2.1.1 2.4.4c2 .4 3.8 1.5 5.2 3.1.7.8 1.2 1.8 1.5 2.8s.5 2.2.5 3.4zm-4.7.3c0-1.2-.2-2.4-.8-3.4a4.8 4.8 0 0 0-1.9-2.1c-.7-.4-1.5-.7-2.3-.9l-2.4-.2H189v13.5h4c1.2 0 2.3-.1 3.4-.5.8-.3 1.6-.8 2.2-1.4.6-.6 1.1-1.4 1.4-2.2.3-.9.5-1.8.5-2.8zm15.3 22.8l-.1.4-.4.2-.7.2-1.1.1-1.1-.1-.7-.2a.8.8 0 0 1-.4-.2l-.1-.4V1.2l.1-.4.4-.2.7-.2 1-.1 1.1.1.7.2.4.2.1.4.1 32.1zm25.7-1.1l-.1.9-.2.6-.3.4-.4.1h-14.8c-.4 0-.8-.1-1.1-.4-.4-.4-.6-.9-.5-1.4V1.2l.1-.4.4-.2.7-.2h2.1l.7.2.4.2.1.4v29.1h12.1l.4.1.3.3.2.6-.1.9zm30.4-15.4c0 2.4-.3 4.8-.9 7.2-1 3.9-3.8 7.2-7.5 8.9a18.8 18.8 0 0 1-13 .1 12 12 0 0 1-4.5-3.2 14.1 14.1 0 0 1-2.6-5.2 28.5 28.5 0 0 1 0-14.2c.6-2 1.5-3.8 2.8-5.4a12 12 0 0 1 4.7-3.4c4.1-1.6 8.7-1.6 12.9-.1 3.6 1.5 6.3 4.6 7.2 8.4.7 2.1 1 4.5.9 6.9zm-4.6.3c0-1.7-.2-3.5-.5-5.2-.3-1.5-.8-2.9-1.6-4.1a8.4 8.4 0 0 0-3.1-2.8c-1.5-.7-3.1-1-4.8-1-1.6-.1-3.3.3-4.7 1.1a9.2 9.2 0 0 0-3.1 2.8c-.8 1.3-1.4 2.7-1.7 4.1-.4 1.6-.5 3.3-.5 5 0 1.8.1 3.6.5 5.3.3 1.5.8 2.9 1.6 4.2a7.1 7.1 0 0 0 3 2.7c1.5.7 3.1 1 4.8 1a9 9 0 0 0 7.9-4c.8-1.3 1.4-2.7 1.7-4.2.4-1.5.5-3.2.5-4.9zM298 2.2v.9l-.2.6-.3.3-.4.1h-9.4v29.2l-.1.4-.4.2-.7.2-1.1.1-1.1-.1-.7-.2a.8.8 0 0 1-.4-.2l-.1-.4V4.1h-9.5l-.4-.1-.3-.3-.2-.6-.1-.9.1-.9.2-.6.3-.4.4-.1H297l.4.1.3.3.2.6.1 1z" fill="#929497"/><path d="M.1.9v14.3s10.8 5.2 16.3 14.4c0 0 2.4-20.3 16-28.6L.1.9z" fill="#f9a21e"/><linearGradient id="a" gradientUnits="userSpaceOnUse" x1="16.2" y1="723.3" x2="16.2" y2="704.8" gradientTransform="translate(0 -690)"><stop offset="0" stop-color="#e37a26"/><stop offset=".5" stop-color="#f9a21e"/></linearGradient><path d="M0 27v6.3h14.5c-3.9-3.8-9-6-14.5-6.3zm18.5 6.3h13.9V14.8C24.5 17 18.5 33.3 18.5 33.3z" fill="url(#a)"/><linearGradient id="b" gradientUnits="userSpaceOnUse" x1="16.2" y1="703.5" x2="16.2" y2="691.1" gradientTransform="translate(0 -690)"><stop offset="0" stop-color="#fff"/><stop offset="1" stop-color="#f9a21e"/></linearGradient><path d="M.3 1.1h31.8s-5.2 1.8-10.8 12.2c0 0-12.3 1.2-20.9-2.5L.3 1.1z" opacity=".5" fill="url(#b)"/><linearGradient id="c" gradientUnits="userSpaceOnUse" x1="16.3" y1="691" x2="16.3" y2="723.2" gradientTransform="translate(0 -690)"><stop offset="0" stop-color="#484848"/><stop offset="1"/></linearGradient><path d="M16.4 29.5A42.5 42.5 0 0 0 .1 15.2V27c5.4.3 10.5 2.5 14.5 6.3h3.9s6-16.3 13.9-18.5V.9c-13.6 8.4-16 28.7-16 28.6z" fill="url(#c)"/></svg>
