<?xml version="1.0" encoding="utf-8"?>
<!-- Generator: Adobe Illustrator 22.0.1, SVG Export Plug-In . SVG Version: 6.00 Build 0)  -->
<svg version="1.1" id="Layer_1" xmlns="http://www.w3.org/2000/svg" xmlns:xlink="http://www.w3.org/1999/xlink" x="0px" y="0px"
	 viewBox="0 0 143.5 70" style="enable-background:new 0 0 143.5 70;" xml:space="preserve">
<style type="text/css">
	.st0{fill:#FFFFFF;stroke:#FFFFFF;stroke-width:2;stroke-miterlimit:10;}
	.st1{fill:none;stroke:#FFFFFF;stroke-width:2;stroke-miterlimit:10;}
</style>
<path id="XMLID_695_" class="st0" d="M84.2,13.1h-1.6v-2.7c0-0.1-0.4-0.4-0.9-0.4h-3.3c-0.5,0-0.9,0.3-0.9,0.4v2.7H76v-2.7
	c0-1.1,1-2.1,2.5-2.1h3.3c1.3,0,2.5,1,2.5,2.1C84.2,10.4,84.2,13.1,84.2,13.1z"/>
<path id="XMLID_694_" class="st0" d="M73.5,6.8c-0.3,0-0.4-0.1-0.5-0.3l-0.9-1c-0.3-0.3-0.3-0.8,0-1.1c0.3-0.3,0.8-0.3,1,0L74,5.2
	c0.3,0.3,0.3,0.8,0,1.1C73.9,6.6,73.7,6.8,73.5,6.8z"/>
<path id="XMLID_693_" class="st0" d="M85.9,6.8c-0.3,0-0.4-0.1-0.5-0.3c-0.3-0.3-0.3-0.8,0-1.1l0.9-1c0.3-0.3,0.8-0.3,1,0
	c0.3,0.3,0.3,0.8,0,1.1l-0.9,1C86.3,6.6,86.1,6.8,85.9,6.8z"/>
<path id="XMLID_692_" class="st0" d="M80.2,4.7c-0.4,0-0.8-0.4-0.8-0.8v-2c0-0.4,0.4-0.8,0.8-0.8S81,1.4,81,1.8v2
	C81,4.2,80.6,4.7,80.2,4.7z"/>
<path id="XMLID_156_" class="st1" d="M11.3,55.2H6.4c-1.7,0-3.1-1.5-3.1-3.4v-3.4c0-1.8,1.4-3.4,3.1-3.4h60.4"/>
<path id="XMLID_157_" class="st1" d="M35,55.2h-6.5"/>
<path id="XMLID_154_" class="st1" d="M94.7,55.2H52.4"/>
<ellipse id="XMLID_727_" class="st1" cx="19.8" cy="57.7" rx="8.6" ry="9.3"/>
<ellipse id="XMLID_726_" class="st1" cx="19.8" cy="57.7" rx="3.3" ry="3.5"/>
<ellipse id="XMLID_742_" class="st1" cx="43.4" cy="57.7" rx="8.6" ry="9.3"/>
<ellipse id="XMLID_741_" class="st1" cx="43.4" cy="57.7" rx="3.3" ry="3.5"/>
<path id="XMLID_781_" class="st1" d="M96.1,55.2H77.9c-4.3-0.1-11.4,1.3-11.3-6V20.1c0,0,0-7,9.4-7h15.6c11,0,16.8,12.4,22,17.1
	c3.8,3.5,6.4,4.8,8.8,6.7c3.5,2.9,3,7.3,3,12.2c0,4.6-1.8,6.2-5.6,6h-7.3"/>
<ellipse id="XMLID_757_" class="st1" cx="104.4" cy="57.7" rx="8.6" ry="9.3"/>
<ellipse id="XMLID_756_" class="st1" cx="104.5" cy="57.7" rx="3.3" ry="3.5"/>
<path id="XMLID_691_" class="st1" d="M81.7,21.4v6.9c0,1.8,1.4,3.4,3.1,3.4H88l13.1,0.1c2.5,0,4.1-3.1,2.6-5.3
	c-2.5-3.7-6-7.9-10-8.3c-4.1-0.4-7.1-0.3-9.2-0.3C82.9,18.1,81.7,19.5,81.7,21.4z"/>
<path id="XMLID_690_" class="st0" d="M67.1,49.9l10-10.8"/>
<path id="XMLID_689_" class="st0" d="M67.1,42.8L77,32"/>
<path id="XMLID_688_" class="st0" d="M67.1,35.7L77,25"/>
<path id="XMLID_687_" class="st0" d="M91,18.3v13.3"/>
<path id="XMLID_155_" class="st1" d="M57.4,37.9c1.2,0,4.3-0.4,4.6-0.6c0.3-0.3,0.3-1.7,0.3-2s0.5-0.1,0.7-0.8
	c0.1-0.7,0.1-1.4-0.3-2c-0.4-0.7-0.8-3.1-5.8-4.6c-6-1.8-3.4-0.8-6.9-2.1c-1.8-0.6-4.6-2.5-5.6-3.1c-1-0.7-3.1-2.7-8.1-3.7
	s-11.8-0.6-14.8-0.6c-1,0-5.8,0.1-7.1,1.3c-0.8,0.6-3,5.5-3.8,5.6C10,25.6,10,26,10,26.3S9.9,30,9.9,30.1c-0.1,0.1-0.3,1-0.9,1.5
	c-0.7,0.6-0.4,2.9,0,3.9s0.5,1.4,1,1.4c0.5,0.1,0.8,1.1,0.8,1.1h4.6"/>
<path id="XMLID_686_" class="st1" d="M24.8,38.2c7.2,0,15.8,0.1,22.9,0"/>
<ellipse id="XMLID_685_" class="st1" cx="20.2" cy="37.9" rx="4.7" ry="5.1"/>
<ellipse id="XMLID_684_" class="st1" cx="20.2" cy="37.9" rx="1.8" ry="2"/>
<ellipse id="XMLID_683_" class="st1" cx="52.4" cy="37.9" rx="4.7" ry="5.1"/>
<ellipse id="XMLID_682_" class="st1" cx="52.4" cy="37.9" rx="1.8" ry="2"/>
<path id="XMLID_681_" class="st1" d="M15.2,24.9c0,0,0-1.3,0.4-2s0.5-1,1.3-1.1c0.8-0.1,2.5-0.4,3.8-0.4s4.8-0.3,6-0.3
	c1.2,0,2.5-0.1,2.9-0.1s3.5,0.1,6,0.7s3.9,1.1,5.9,2.4s3.3,2.1,4.2,3.1s0.1,1.1-0.8,1.1s-2.5,0.1-5,0.1c-2.5-0.1-7.2-0.6-7.7-0.6
	s-1.7-0.1-2.1-0.3c-0.4-0.1-4.1-0.1-5.2-0.1s-5.8-0.1-6.3-0.1s-1.4,0-2-0.6C16.1,26.1,15.2,25,15.2,24.9z"/>
<path id="XMLID_678_" class="st0" d="M17.4,27.1l1.8-5.8"/>
<path id="XMLID_674_" class="st0" d="M30.1,20.8l0.1,6.7"/>
</svg>
