<svg xmlns="http://www.w3.org/2000/svg" viewBox="0 0 45 20" fill="#fff"><path d="M44.7 11.2l-.1-.2c-.3-.8-1.1-2.6-4.9-3.7-2.6-.8-3.2-.9-3.6-1-.4-.1-.6-.2-2-.6-1.3-.5-2.6-1.2-3.8-2l-.6-.4-.5-.3C27.3 1.7 25.2.8 23 .5 19.4 0 15.7-.1 12.1.1h-1.2C9.8.1 6 .2 4.8 1.2c-.6.6-1 1.3-1.4 2.1C3 4 2.5 4.7 2 5.4c-.5.1-.8.6-.8 1.1v.9c0 .5-.1 1.6-.2 1.9l-.1.2c-.1.3-.3.6-.5.8-.8.8-.4 2.9-.1 3.7s.5 1.3 1.2 1.4c.1.1.2.3.2.4.1.3.3.5.6.5h3.2c.4 2.1 2.2 3.7 4.3 3.7 2.1 0 3.9-1.5 4.3-3.6h17.6C32 18.5 33.9 20 36 20c2.1 0 3.9-1.6 4.2-3.7 1.3 0 2.6-.2 3.9-.6.3-.2.4-.6.4-1.7.3-.2.5-.5.5-.9V13c.1-.7 0-1.2-.3-1.8zM9.9 18.8c-1.3 0-2.5-.8-3-2s-.2-2.6.7-3.5 2.3-1.2 3.5-.7c1.2.5 2 1.7 2 3-.1 1.8-1.5 3.2-3.2 3.2zm26.1 0c-1.8 0-3.2-1.4-3.2-3.2s1.4-3.2 3.2-3.2c1.8 0 3.2 1.4 3.2 3.2s-1.5 3.2-3.2 3.2zm7.8-6v.2c-.3.1-.5.4-.5.8v1c-.6.1-2.1.3-3 .3-.3-2.2-2.2-3.9-4.4-3.9s-4.1 1.8-4.2 4H14.2c-.2-2.2-2.1-4-4.3-4-2.2 0-4.1 1.7-4.3 3.9H2.8c-.1-.4-.5-.8-1-.9-.1 0-.2-.2-.4-.8-.3-.8-.4-1.6-.2-2.4.3-.3.6-.8.7-1.2.1-.2.1-.3.2-2.4v-.8c.5-.2 1-.9 2.1-2.7.3-.6.7-1.2 1.2-1.8.7-.5 3.2-.8 5.4-.8H12c3.5-.2 7.1 0 10.6.4 2.1.3 4.1 1.2 5.8 2.4l.6.4.6.4c1.4.8 2.7 1.5 4.2 2.1 1.4.4 1.6.5 2 .6s1.1.3 3.5 1c3.3 1 3.9 2.4 4.1 3 0 .1.1.2.1.3.3.3.4.6.3.9z"/></svg>
