<svg width="58" height="25" xmlns="http://www.w3.org/2000/svg" xmlns:xlink="http://www.w3.org/1999/xlink"><defs><path id="a" d="M0 0h57.5v25H0z"/></defs><g fill="none" fill-rule="evenodd"><mask id="b" fill="#fff"><use xlink:href="#a"/></mask><path d="M43.6 21c.1.3.3.7.6 1l1 .6a3 3 0 0 0 2.3 0l1-.7c.3-.2.5-.6.7-1a3 3 0 0 0 0-2.2l-.7-1a3 3 0 0 0-5.2 2.1l.3 1.2zm4.8-6a5.3 5.3 0 0 1 2.8 2.8c.3.6.4 1.3.4 2a5.3 5.3 0 0 1-3.2 4.8c-.6.3-1.3.4-2 .4a5.2 5.2 0 0 1-3.7-8.9c.4-.4 1-.8 1.6-1a5 5 0 0 1 4.1 0zM37 8.5l-.6-.4a33.8 33.8 0 0 0-12.6-3.2v2.9l2.7.2a641.4 641.4 0 0 1 11.1 1c-.2-.3-.4-.4-.6-.5zm2.7 10.9c.4 0 .6 0 .8.3.2.2.3.4.3.7 0 .3 0 .6-.3.8a1 1 0 0 1-.8.3H15.4a1 1 0 0 1-.8-.3 1 1 0 0 1-.3-.8c0-.3 0-.5.3-.7.2-.2.4-.3.8-.3h24.3zM21.5 4.9a42 42 0 0 0-6.5.9c-.4 0-.7.2-.9.3A27 27 0 0 0 13 7l-.1.1h1.5a2701 2701 0 0 0 7.2.6V4.9zm17.7 6.3h-1.7l-.2-.1a12.1 12.1 0 0 0-2.2-.3 709.5 709.5 0 0 1-16.4-1.2 90 90 0 0 0-7-.5l-.6-.3a1.6 1.6 0 0 1-1-1.4c0-.3 0-.5.2-.7l.2-.5a4.8 4.8 0 0 1 1.1-1 22 22 0 0 1 .7-.6L14 4c.5-.3 1.2-.5 1.9-.6l3.3-.5a54.8 54.8 0 0 1 9 .3 40.9 40.9 0 0 1 7.3 2l2 1 1.9 1.3 1.1 1.4.2.4v1l-.1.3c-.2.2-.3.4-.5.4l-.4.3h-.4zM6.1 21c.1.3.3.7.6 1a3.3 3.3 0 0 0 2.2.8c.4 0 .8 0 1.1-.2l1-.7c.3-.2.5-.6.7-1a3 3 0 0 0 0-2.2l-.7-1a3 3 0 0 0-2.1-1A3 3 0 0 0 6 21zm4.8-6a5.5 5.5 0 0 1 2.8 2.8c.3.6.4 1.3.4 2a5 5 0 0 1-1.5 3.7 5.3 5.3 0 0 1-7.4 0 5.3 5.3 0 0 1-1.6-3.7 5.2 5.2 0 0 1 1.6-3.7 5.3 5.3 0 0 1 3.7-1.5 5 5 0 0 1 2 .4zm-9.6-3.2l.4-.3V11a47.2 47.2 0 0 0 .3-2v-.3h.1A24.4 24.4 0 0 1 5.4 4a120.3 120.3 0 0 1 2.1-2.4h.1l.9-.5 2-.4a32.9 32.9 0 0 1 5.3-.5A98 98 0 0 1 23 0a35.8 35.8 0 0 1 21.3 6.7l2.5.5a22.5 22.5 0 0 1 6.4 2.6c.8.5 1.5 1 2 1.6.8.8 1.3 1.6 1.7 2.5.4.9.6 1.8.6 2.8a16.5 16.5 0 0 1-.2 2.1 5.2 5.2 0 0 1-.4 1.3 3 3 0 0 1-1.5 1.3l-.9.2-1.2.2a1 1 0 0 1-.8-.3 1 1 0 0 1-.3-.8c0-.3 0-.5.3-.8.2-.2.4-.3.7-.3a8 8 0 0 0 1.3-.2 5 5 0 0 0 .4-.2l.1-.2.2-.4a9.1 9.1 0 0 0 .1-1.9 5 5 0 0 0-.4-2 6.4 6.4 0 0 0-2.7-3 16.2 16.2 0 0 0-4.7-2 24.2 24.2 0 0 0-3.7-.8h-.1a1 1 0 0 1-.3-.1l-.3-.2-1.6-1.2c-1-.6-2.3-1.4-4-2.2a38.3 38.3 0 0 0-14.5-3 143.7 143.7 0 0 0-12 .6 13.9 13.9 0 0 0-2 .4 29.3 29.3 0 0 0-3.6 4.5A17.1 17.1 0 0 0 4 9.9v.2a7.9 7.9 0 0 0-.2 1.3 4.2 4.2 0 0 0 0 .7l-.2.4s0 .2-.2.2l-.2.3H3l-.7 1.1-.2 1.4v.8l.2.7.1.4.3.3c.2.3.3.5.3.8 0 .3-.2.6-.4.8a1.2 1.2 0 0 1-.7.3l-.5-.1a1 1 0 0 1-.3-.3l-.6-.7a4.8 4.8 0 0 1-.5-1.9L0 15.5a5.1 5.1 0 0 1 1-3.3l.3-.4z" fill="#D2D2D2" mask="url(#b)"/></g></svg>