<svg xmlns="http://www.w3.org/2000/svg" viewBox="0 0 72 45"><path d="M20.1 12.6v.3c4 .9 7.5 3.4 7.5 9.3.1 4.9-3.7 9-8.6 9.1h-.5c-6.2 0-11.4-3.7-11.4-6.7 0-2.8 5.5-4.8 10.2-5h2.2v-7.2c-9.3 0-14.8 4.2-14.8 9.9 0 5.5 6.3 10 14 10 7.8 0 14.1-4.1 14.1-9.9 0-5-5.4-9.4-12.7-9.8z"/><path d="M13.3 25.5c0 3.1 3.4 4.9 6.1 5.1V20.1c-3.1.1-6.1 2.4-6.1 5.4zm47.8-8l.1-.8c-1.6-.8-5.8-.4-5.7 2.4.1 2.5 3.2 3.2 5.6 2.5l-.1-.8c-.7.2-3.9.4-3.9-1.6.1-2.6 3.6-1.8 4-1.7zm.4-1v.9h2.2v4.4h1.5v-4.4h2.1v-.9M55 21.8v-.9h-2.8v-1.3h2.7v-.9h-2.7v-1.4h2.9v-.8h-4.3v5.3h1.4m-10.9-5.3h1.6v5.3h-1.6zm-4.5 0H34v5.3h2.8c1.9 0 3.6-1 3.6-2.6s-1.6-2.7-3.6-2.7zm-.3 4.4h-1v-3.7l1.2.1c1-.1 1.9.7 2 1.8.1 1-.8 1.8-2.2 1.8zm.3 2.2H34v5.3h2.8c1.9 0 3.6-1 3.6-2.6s-1.7-2.7-3.6-2.7zm-.3 4.4h-1v-3.7l1.2.1c1 0 1.9.7 2 1.8.1 1.1-.8 1.8-2.2 1.8zm22-2.9H60v3.9h-1.5zm0-1.9H60v1h-1.5zm6.8 4.6v-1.9h1.3v-.8h-1.3v-1h-1.6v1h-1.2v.8h1.2v2.1c0 1.4 1.9 1.4 2.9 1.2v-.9c-.5.2-1.3 0-1.3-.5zm-20.3-3c-1.7 0-2.9.9-2.9 2.1 0 1.3 1.3 2.1 2.9 2.1.8.1 1.5-.1 2.3-.3v-.9c-.4.4-3.5 1-3.6-.5h3.9c.2-1.9-1.3-2.5-2.6-2.5zM43.7 26c0-.7.6-.9 1.3-.9.6-.1 1.1.3 1.2.9h-2.5zm4.5-6.8c.7 0 1.3-.6 1.2-1.4 0-1.2-1.5-1.4-2.3-1.4h-2.8v5.3h1.6v-2.1h.6c.4 0 .7.2.9.5l.8 1.6h1.7l-1.2-2.2c-.3-.1-.4-.2-.5-.3zm-1.4-.5h-1v-1.4h1.1c.5 0 1 .2 1 .7-.1.5-.7.7-1.1.7zm6.9 5.7h-.3c-.7-.1-1.4.2-1.9.7v-2.4H50v5.7h1.5V28c.5.5 1.2.7 1.9.6 1.2.1 2.2-.8 2.3-1.9v-.2c.1-1.2-.8-2.1-2-2.1zm-.5 3.3h-.3c-.6 0-1.2-.4-1.3-1.1v-.3c.1-.6.7-1.1 1.3-1.1.7-.1 1.3.4 1.3 1.1.1.8-.4 1.4-1 1.4z"/></svg>
