<svg id="Layer_1" xmlns="http://www.w3.org/2000/svg" viewBox="0 0 100 50"><style>.st1{fill:#fff}</style><path d="M90.3 50H9.7C4.3 50 0 45.7 0 40.3V9.7C0 4.3 4.3 0 9.7 0h80.7c5.3 0 9.7 4.3 9.7 9.7v30.7c-.1 5.3-4.4 9.6-9.8 9.6z" fill="#d0021b"/><path class="st1" d="M21.2 23.5h1c.2 0 .4.1.6.2.2.1.4.3.6.6.1.3.2.6.2.9s-.1.6-.2.9-.3.4-.6.6c-.2.1-.4.2-.6.2h-9.5v9.4c0 .1 0 .2-.1.4 0 .1-.1.2-.2.4-.1.3-.4.5-.6.6s-.6.2-1 .2-.7-.1-1-.2-.5-.4-.7-.7c-.1-.1-.1-.2-.1-.3 0-.1-.1-.2-.1-.4v-.4V14.5c0-.3 0-.6.1-.9 0-.3.2-.6.5-.9.3-.3.6-.4.9-.5.3 0 .6-.1.9-.1H24c.2 0 .4.1.6.2.2.1.4.3.6.6s.2.6.2.9-.1.6-.2.9-.3.4-.6.6c-.2.1-.4.2-.6.2H12.7v7.9h8.5zM30 36.7c0-.1-.1-.2-.1-.4v-.4V14.5c0-.3 0-.6.1-.9 0-.3.2-.6.5-.9.3-.3.6-.4.9-.5.3 0 .6-.1.9-.1h7.6c1.2 0 2.3.2 3.3.6s1.8.9 2.5 1.6c.7.7 1.2 1.5 1.6 2.4.4.9.6 1.9.6 3 0 .9-.1 1.7-.4 2.5-.3.8-.6 1.4-1.1 2-.5.6-1 1.1-1.6 1.4s-1.3.7-2 .9l4.6 8c.2.4.4.7.5.9.1.2.1.4.1.7 0 .3-.1.6-.2.9-.2.3-.4.5-.7.7-.2.1-.3.2-.5.2s-.4.1-.5.1c-.2 0-.5 0-.6-.1s-.4-.2-.5-.3c-.1-.1-.3-.3-.4-.5-.1-.2-.2-.4-.4-.6L38.6 27h-4.9v9.3c0 .1 0 .2-.1.4 0 .1-.1.2-.2.4-.1.3-.4.5-.6.6s-.6.2-1 .2-.7-.1-1-.2-.5-.4-.6-.6c-.1-.2-.2-.3-.2-.4zm3.7-13h5.8c.6 0 1.2-.1 1.8-.3s1-.4 1.4-.8c.4-.3.7-.8.9-1.3.2-.5.3-1.1.3-1.7s-.1-1.2-.3-1.7c-.2-.5-.5-.9-.9-1.3-.4-.3-.8-.6-1.4-.8s-1.1-.3-1.8-.3h-5.8v8.2zM65.8 23.1h1c.2 0 .4.1.6.2.2.1.4.3.6.6.1.3.2.6.2.9s-.1.6-.2.9c-.1.3-.3.4-.6.6-.2.1-.4.2-.6.2h-9.5v7.7h11.3c.2 0 .4.1.6.2.2.1.4.3.6.6.1.3.2.6.2.9s-.1.6-.2.9c-.1.3-.3.4-.6.6-.2.1-.4.2-.6.2H55.9c-.3 0-.6 0-.9-.1s-.6-.2-.9-.5c-.3-.3-.4-.6-.5-.9 0-.3-.1-.6-.1-.9V14.5c0-.3 0-.6.1-.9s.2-.6.5-.9c.3-.3.6-.4.9-.5.3 0 .6-.1.9-.1h12.8c.2 0 .4.1.6.2.2.1.4.3.6.6.1.3.2.6.2.9s-.1.6-.2.9c-.1.3-.3.4-.6.6-.2.1-.4.2-.6.2H57.4V23h8.4zM87.5 23.1h1c.2 0 .4.1.6.2.2.1.4.3.6.6.1.3.2.6.2.9s-.1.6-.2.9c-.1.3-.3.4-.6.6-.2.1-.4.2-.6.2H79v7.7h11.3c.3 0 .4.1.6.2.2.1.4.3.6.6.1.3.2.6.2.9s-.1.6-.2.9c-.1.3-.3.4-.6.6-.2.1-.4.2-.6.2H77.5c-.3 0-.6 0-.9-.1-.3 0-.6-.2-.9-.5-.3-.3-.4-.6-.5-.9 0-.3-.1-.6-.1-.9V14.5c0-.3 0-.6.1-.9s.2-.6.5-.9c.3-.3.6-.4.9-.5.3 0 .6-.1.9-.1h12.8c.2 0 .4.1.6.2.2.1.4.3.6.6.1.3.2.6.2.9s-.1.6-.2.9c-.1.3-.3.4-.6.6-.2.1-.4.2-.6.2H79V23h8.5z"/></svg>