<svg xmlns="http://www.w3.org/2000/svg" viewBox="0 0 32 20"><path d="M19.9 10.2a10.5 10.5 0 0 1-1.2 5 8.6 8.6 0 0 1-3.4 3.6 10 10 0 0 1-5 1.2 9.8 9.8 0 0 1-3.9-.8 10 10 0 0 1-3.2-2.1 10 10 0 0 1-2.1-3.2 10 10 0 0 1 0-7.8A9.8 9.8 0 0 1 6.4.8a9.8 9.8 0 0 1 3.9-.8A9.4 9.4 0 0 1 17 2.6l-2.7 2.6a5.5 5.5 0 0 0-4-1.5 6 6 0 0 0-3.1.8A6.3 6.3 0 0 0 4 10a6.3 6.3 0 0 0 3 5.5 6 6 0 0 0 3.2.8 6.6 6.6 0 0 0 2-.3 5.3 5.3 0 0 0 1.6-.8 5.6 5.6 0 0 0 1.1-1 4.7 4.7 0 0 0 .7-1.2 5 5 0 0 0 .3-1h-5.7V8.6h9.4a8.7 8.7 0 0 1 .2 1.6zm11.8-1.6v2.8H29v2.9h-3v-2.9h-2.9V8.6H26V5.7h2.9v2.9z"/></svg>
