<svg xmlns="http://www.w3.org/2000/svg" viewBox="0 0 20 20" fill="#386c87"><path d="M18.7 5c-.9-1.5-2.1-2.7-3.6-3.6A9.4 9.4 0 0 0 10 0C8.2 0 6.5.4 5 1.3A11 11 0 0 0 1.3 5 9.6 9.6 0 0 0 0 10c0 1.8.4 3.5 1.3 5s2.1 2.7 3.6 3.6c1.5.9 3.2 1.3 5 1.3 1.8 0 3.5-.4 5-1.3s2.7-2.1 3.6-3.6a9.6 9.6 0 0 0 1.3-5c.2-1.8-.2-3.5-1.1-5zM8.3 2.5l.1-.3.3-.1h2.5l.3.1.1.3v2.1l-.1.3-.2.1H8.7l-.2-.1-.2-.3V2.5zm5 13.7l-.1.3-.3.1H7.1l-.3-.1-.1-.3v-2.1l.1-.3.3-.1h1.3V9.6H7.1l-.3-.1-.1-.3V7.1l.1-.3.3-.1h4.2l.3.1.1.3v6.7H13l.3.1.1.3v2z"/></svg>
