<?xml version="1.0" encoding="utf-8"?>
<!-- Generator: Adobe Illustrator 22.0.1, SVG Export Plug-In . SVG Version: 6.00 Build 0)  -->
<svg version="1.1" id="Layer_1" xmlns="http://www.w3.org/2000/svg" xmlns:xlink="http://www.w3.org/1999/xlink" x="0px" y="0px"
	 viewBox="0 0 52 50" style="enable-background:new 0 0 52 50;" xml:space="preserve">
<style type="text/css">
	.st0{fill:none;stroke:#FFFFFF;stroke-width:0.5;stroke-linejoin:round;stroke-miterlimit:10;}
	.st1{fill:none;stroke:#FFFFFF;stroke-linejoin:round;stroke-miterlimit:10;}
</style>
<g id="XMLID_760_">
	<g id="XMLID_1425_">
		<g id="XMLID_1426_">
			<path id="XMLID_1395_" class="st0" d="M30.9,6.7c0.9-0.9,2.4-0.9,3.3,0l10.6,10.6c0.9,0.9,0.9,2.4,0,3.3s-2.4,0.9-3.3,0
				L30.9,10.1C30,9.2,30,7.7,30.9,6.7z"/>
		</g>
	</g>
	<g id="XMLID_1414_">
		<g id="XMLID_1415_">
			<g id="XMLID_1416_">
				<path id="XMLID_1389_" class="st1" d="M6.9,47.5h1.2v-2.4H10v-1.6h2.9v-2.6h2.9l0.5-0.1l6.5-6.5l-5.5-5.5l-6.5,6.5l-0.1,0.5v2.9
					H8.1v2.9H6.5v1.9H4.1v1.2H2.7V49H7C7,49,6.9,47.5,6.9,47.5z"/>
			</g>
		</g>
	</g>
	<g id="XMLID_1390_">
		<g id="XMLID_1394_">
			<path id="XMLID_1397_" class="st1" d="M13.7,19.1L30.5,2.3c1.7-1.7,4.4-1.7,6.1,0l13,13c1.7,1.7,1.7,4.4,0,6.1L32.8,38.1
				c-1.7,1.7-4.4,1.7-6.1,0l-13-13C12,23.5,12,20.7,13.7,19.1z"/>
		</g>
	</g>
	<g id="XMLID_100_">
		<g id="XMLID_101_">
			<path id="XMLID_102_" class="st0" d="M19.5,18.2l4-4c1.7-1.7,4.4-1.7,6.1,0l7.8,7.8c1.7,1.7,1.7,4.4,0,6.1l-4,4
				c-1.7,1.7-4.4,1.7-6.1,0l-7.8-7.8C17.8,22.6,17.8,19.8,19.5,18.2z"/>
		</g>
	</g>
</g>
</svg>
