<?xml version="1.0" encoding="utf-8"?>
<!-- Generator: Adobe Illustrator 22.0.1, SVG Export Plug-In . SVG Version: 6.00 Build 0)  -->
<svg version="1.1" id="Layer_1" xmlns="http://www.w3.org/2000/svg" xmlns:xlink="http://www.w3.org/1999/xlink" x="0px" y="0px"
	 viewBox="0 0 64.9 50" style="enable-background:new 0 0 64.9 50;" xml:space="preserve">
<style type="text/css">
	.st0{fill:none;stroke:#FFFFFF;stroke-linejoin:round;stroke-miterlimit:10;}
	.st1{fill:none;stroke:#FFFFFF;stroke-miterlimit:10;}
	.st2{fill:none;stroke:#FFFFFF;stroke-width:0.5;stroke-linejoin:round;stroke-miterlimit:10;}
</style>
<path class="st0" d="M19.9,7.5l16.2,7.4l-6.8,14.9l-16.2-7.4L19.9,7.5z"/>
<path class="st0" d="M38.6,16l-21-9.5C17,6.2,16.8,5.6,17,5.1l1.6-3.5c0.2-0.5,0.8-0.7,1.3-0.5l21,9.5c0.5,0.2,0.7,0.8,0.5,1.3
	l-1.6,3.5C39.7,16,39.1,16.2,38.6,16z M29.4,36.2l-21-9.5c-0.5-0.2-0.7-0.8-0.5-1.3l1.6-3.5c0.2-0.5,0.8-0.7,1.3-0.5l21,9.5
	c0.5,0.2,0.7,0.8,0.5,1.3l-1.6,3.5C30.5,36.2,29.9,36.5,29.4,36.2z"/>
<path class="st1" d="M36.9,49h-34c-0.6,0-1-0.5-1-1v-0.8c0-0.5,0.4-1,1-1h34c0.5,0,1,0.5,1,1V48C37.9,48.5,37.5,49,36.9,49z"/>
<path class="st2" d="M62,32.1l-2.4,5.5 M60.8,31.3l-2.5,5.4"/>
<path class="st1" d="M34.1,46.2H5.7c-0.5,0-1-0.4-1-1V43c0-0.5,0.5-1,1-1h28.4c0.5,0,1,0.5,1,1v2.2C35.1,45.8,34.7,46.2,34.1,46.2z"
	/>
<path class="st0" d="M34.2,20.1l29.4,12.8c0.7,0.3,1,1.1,0.7,1.8L62.8,38c-0.3,0.7-1.1,1-1.8,0.7l-1.2-0.6c-1-0.5-2.1-1.1-3.1-1.6
	c-1.5-0.8-2.9-1.5-4.4-2.3c-1.7-0.9-3.3-1.7-5-2.6c-1.7-0.9-3.4-1.8-5-2.6c-1.5-0.8-3-1.5-4.4-2.3c-1.1-0.6-2.1-1.1-3.2-1.7
	c-0.5-0.2-0.9-0.5-1.4-0.7c-0.3-0.2-1-0.4-1-0.8"/>
</svg>
