<svg xmlns="http://www.w3.org/2000/svg" viewBox="0 0 21 20"><path d="M5 2.3A2.1 2.1 0 0 1 4.5 4a2.6 2.6 0 0 1-1.9.7A2.5 2.5 0 0 1 .7 4 2.2 2.2 0 0 1 0 2.3 2.2 2.2 0 0 1 .7.7 2.6 2.6 0 0 1 2.6 0a2.5 2.5 0 0 1 1.8.7A2.3 2.3 0 0 1 5 2.3zm-.2 4.2V20H.3V6.5zM21 12.3V20h-4.5v-7.2a4 4 0 0 0-.6-2.3 2 2 0 0 0-1.7-.8 2.2 2.2 0 0 0-1.4.5 2.9 2.9 0 0 0-.9 1.2 3.3 3.3 0 0 0-.1 1V20H7.3V6.5h4.5v2a6.1 6.1 0 0 1 .5-.7 5.9 5.9 0 0 1 .8-.8 3.5 3.5 0 0 1 1.1-.6 5.4 5.4 0 0 1 1.6-.2 4.8 4.8 0 0 1 3.7 1.6 6.5 6.5 0 0 1 1.5 4.5z"/></svg>
