<svg xmlns="http://www.w3.org/2000/svg" viewBox="0 0 72 45"><path fill="#231F20" d="M21 40.6v-2.4c.1-.8-.5-1.5-1.3-1.5h-.2c-.5 0-1.1.2-1.4.7-.3-.4-.8-.7-1.3-.7s-.9.2-1.1.6v-.5h-.8v3.9h.8v-2.1c-.1-.5.3-1 .8-1h.2c.6 0 .8.4.8 1v2.1h.8v-2.1c-.1-.5.3-1 .8-1h.2c.6 0 .8.4.8 1v2.1l.9-.1zm12.6-3.9h-1.4v-1.2h-.8v1.2h-.8v.8h.8v1.8c0 .9.3 1.4 1.3 1.4.4 0 .7-.1 1.1-.3l-.2-.7c-.2.1-.5.2-.7.2-.4 0-.6-.3-.6-.6v-1.8h1.4l-.1-.8zm7.1-.1c-.4 0-.8.2-1 .6v-.5h-.8v3.9h.8v-2.2c0-.6.3-1 .8-1 .2 0 .4 0 .5.1l.3-.8c-.2 0-.4-.1-.6-.1zm-10.8.4c-.5-.3-1-.4-1.6-.4-1 0-1.6.5-1.6 1.2 0 .6.5 1 1.3 1.1l.4.1c.5.1.7.2.7.4 0 .3-.3.5-.9.5-.5 0-.9-.1-1.3-.4l-.4.7c.5.3 1.1.5 1.7.5 1.1 0 1.8-.5 1.8-1.3s-.5-1-1.3-1.2l-.4-.1c-.4 0-.7-.1-.7-.4s.3-.5.7-.5c.4 0 .8.1 1.2.3l.4-.5zm22.5-.4c-.4 0-.8.2-1 .6v-.5h-.8v3.9h.8v-2.2c0-.6.3-1 .8-1 .2 0 .4 0 .5.1l.3-.8c-.2 0-.4-.1-.6-.1zm-10.8 2.1c0 1.1.8 2 1.9 2h.2c.5 0 1-.1 1.4-.5l-.4-.7c-.3.2-.6.3-1 .3-.7-.1-1.2-.7-1.1-1.3 0-.6.5-1.1 1.1-1.1.4 0 .7.1 1 .3l.4-.7c-.4-.3-.9-.5-1.4-.5-1.1-.1-2 .8-2.1 1.8v.4zm-5.4-2.1c-1.1 0-2 .9-2 2s.9 2 2 2c.6 0 1.2-.2 1.6-.5l-.4-.6c-.3.3-.7.4-1.1.4-.6 0-1.1-.4-1.2-.9H38v-.3c.1-1-.6-1.9-1.6-2-.1-.1-.1-.1-.2-.1zm0 .8c.5 0 1 .4 1 .9h-2c0-.5.4-.9 1-.9zm21 1.3v-3.5h-.8v2c-.3-.4-.7-.6-1.2-.6-1.1 0-2 .9-2 2s.9 2 2 2c.5 0 .9-.2 1.2-.6v.5h.8v-1.8zm1.4 1.3c.2 0 .3.1.4.2v.3c0 .1-.1.2-.2.2h-.2c-.2 0-.3-.1-.4-.2v-.3c.1-.1.3-.2.4-.2zm0 .7h.1s.1 0 .1-.1c.1-.1.1-.3 0-.4 0 0-.1 0-.1-.1h-.2s-.1 0-.1.1c-.1.1-.1.3 0 .4.1.1.2.1.2.1zm.1-.5h.1v.2h-.1l.1.1h-.1l-.1-.1v.1h-.1v-.4l.2.1zm-.1.1l.1.1c0-.1 0-.1-.1-.1zm-4.5-1.6c0-.6.6-1.1 1.2-1.1s1.1.6 1.1 1.2-.6 1.1-1.2 1.1-1.1-.5-1.1-1.2zm-28.3 0v-1.9H25v.5c-.3-.4-.7-.6-1.2-.6-1.1 0-2 .9-2 2s.9 2 2 2c.5 0 .9-.2 1.2-.6v.5h.8v-1.9zm-3.3 0c0-.7.5-1.2 1.2-1.2s1.2.5 1.2 1.2v.2c0 .6-.5 1.1-1.2 1.1-.5-.1-1.1-.6-1.2-1.3z"/><path fill="#FF5F00" d="M29.6 7.3h12.7v22.9H29.6z"/><path fill="#EB001B" d="M30.4 18.7c0-4.5 2-8.7 5.6-11.4-6.3-5-15.5-3.9-20.4 2.4S11.7 25.2 18 30.2c5.3 4.1 12.7 4.1 18 0-3.5-2.8-5.6-7-5.6-11.5z"/><path fill="#F79E1B" d="M59.5 18.7c0 8-6.5 14.5-14.5 14.5-3.3 0-6.4-1.1-9-3.1 6.3-5 7.4-14.1 2.4-20.4-.7-.9-1.5-1.7-2.4-2.4 6.3-5 15.5-3.9 20.4 2.4 2 2.6 3.1 5.8 3.1 9z"/><path fill="#231F20" d="M48.6 36.7v.5c-.3-.4-.7-.6-1.2-.6-1.1 0-2 .9-2 2s.9 2 2 2c.5 0 .9-.2 1.2-.6v.5h.8v-3.8h-.8zm-1.1 3.2c-.7 0-1.2-.5-1.3-1.1v-.1c0-.7.5-1.2 1.2-1.2s1.2.5 1.2 1.2v.2c0 .5-.5 1-1.1 1z"/></svg>
