<svg xmlns="http://www.w3.org/2000/svg" viewBox="0 0 65 43"><path fill="#fff" d="M61.6 32.3a18.4 18.4 0 0 0-7.7-7.2c1.1-2.3 1.6-4.8 1.6-7.3 0-8.9-4.9-12-9.5-12s-9.5 3.2-9.5 12c0 2.5.5 5 1.6 7.3-1.2.6-2.4 1.4-3.5 2.2a18.4 18.4 0 0 0-7.7-7.2c1.1-2.3 1.6-4.8 1.6-7.3 0-8.9-4.9-12-9.5-12S9.5 4 9.5 12.8c0 2.5.5 5 1.6 7.3-3.4 1.7-6 4.1-7.8 7.2C.8 31.6.8 35.9.8 36.4c0 .4.4.8.9.8h26.8c-.6 2.3-.6 4-.6 4.2 0 .4.4.8.9.8h34.8c.4 0 .8-.4.8-.8-.2-.5-.2-4.8-2.8-9.1zM19 2.5c3.8 0 7.9 2.7 7.9 10.3 0 2.7-.6 5.1-1.8 7.3-1.8 3.6-4.7 5.5-6.1 5.5-1.1 0-4.1-1.9-6-5.6a14.1 14.1 0 0 1-1.9-7.2c0-7.6 4.1-10.3 7.9-10.3zm-7.1 19.1c2.2 3.6 5.3 5.7 7.1 5.7 1.9 0 5-2 7.2-5.7 2.9 1.4 5.3 3.6 7 6.5l.1.3c-2 2-3.6 4.4-4.5 7.1H2.5c.2-1.7.7-4.6 2.3-7.4 1.7-2.8 4.1-5 7.1-6.5zM46 7.5c3.8 0 7.8 2.7 7.8 10.3 0 2.7-.6 5.1-1.8 7.3-1.8 3.6-4.7 5.5-6.1 5.5-1.1 0-4.1-1.9-6-5.6a14.1 14.1 0 0 1-1.9-7.2c.2-7.6 4.2-10.3 8-10.3zm0 24.8c1.9 0 5-2 7.2-5.7 2.9 1.4 5.3 3.6 7 6.5a19 19 0 0 1 2.3 7.4h-33c.2-1.7.7-4.6 2.3-7.4 1.7-2.8 4.1-5 7.1-6.5 2.2 3.6 5.3 5.7 7.1 5.7z"/></svg>
