<svg width="20" height="25" xmlns="http://www.w3.org/2000/svg" xmlns:xlink="http://www.w3.org/1999/xlink"><defs><path id="a" d="M0 0h20v25H0z"/></defs><g fill="none" fill-rule="evenodd"><mask id="b" fill="#fff"><use xlink:href="#a"/></mask><path d="M7.8 3.2c-.6.7-1 1.6-1 2.6s.4 1.9 1 2.6a3 3 0 0 0 4.6 0c.6-.7 1-1.6 1-2.6s-.4-1.9-1-2.6a3 3 0 0 0-4.6 0zm.1 8c-.7-.3-1.2-.7-1.7-1.3a6 6 0 0 1 0-8.2A5.5 5.5 0 0 1 10 0a5.2 5.2 0 0 1 4 1.7 6 6 0 0 1 0 8.2 5.5 5.5 0 0 1-4 1.7c-.8 0-1.5-.1-2.2-.4zm9.5 11.7l.3-4.1c0-.5-.2-1-.5-1.5-.4-.5-.8-1-1.4-1a16.6 16.6 0 0 0-5.8-1 18.5 18.5 0 0 0-5.8 1c-.5 0-1 .5-1.4 1-.3.5-.5 1-.5 1.4l.3 4.2h14.8zM1.5 25c-.3 0-.5-.1-.7-.3-.3-.2-.4-.4-.4-.7L0 18.9c0-1 .2-1.9 1-2.8a5 5 0 0 1 2.4-2 20.5 20.5 0 0 1 13.2 0 5 5 0 0 1 2.5 2c.6 1 1 1.9.9 2.8l-.4 5.1c0 .3-.1.5-.3.7-.3.2-.5.3-.9.3H1.5z" fill="#D2D2D2" mask="url(#b)"/></g></svg>
