<svg xmlns="http://www.w3.org/2000/svg" viewBox="0 0 27 27" fill="#4a4a4a"><circle cx="13.5" cy="13.5" r="12.5" fill="none"/><path d="M13.5 27C6.1 27 0 20.9 0 13.5S6.1 0 13.5 0 27 6.1 27 13.5 20.9 27 13.5 27zm0-25C7.2 2 2 7.2 2 13.5S7.2 25 13.5 25 25 19.8 25 13.5 19.8 2 13.5 2z"/><path d="M12.6 18.5c0 .7.6 1.3 1.3 1.3s1.3-.6 1.3-1.3-.6-1.3-1.3-1.3c-.7 0-1.3.6-1.3 1.3zm4.5-7.2c0-1.7-1.4-3.1-3.1-3.1h-.3c-.9 0-1.7.3-2.4.9-.5.5-.9 1.2-.9 1.9l.2.7c.4.4 1 .4 1.4 0l.3-.5.4-.8c.3-.3.6-.4 1-.4.7 0 1.2.5 1.3 1.1v.1c0 .4-.2.8-.5 1.1l-1.2 1.5a2 2 0 0 0-.6 1.5l.2.7c.4.4 1.1.4 1.6 0l.3-.6c.1-.3.2-.7.5-.9l1-1.3c.6-.4.8-1.2.8-1.9z"/></svg>
