<svg xmlns="http://www.w3.org/2000/svg" viewBox="0 0 300 100.3" fill="url(#lgr)"><linearGradient id="lgr" gradientUnits="userSpaceOnUse" x1="0" y1="0" x2="60%" y2="0" gradientTransform="rotate(79)"><stop stop-color="#F65315" offset="0"/><stop stop-color="#F65315" offset="0.33"/><stop stop-color="#FE895A" offset="0.5"/><stop stop-color="#F65315" offset=".5"/></linearGradient><path d="M73.8 50.2h-34c-1.3 0-1.6.6-1.6 1.2 0 .5.3 1 .6 1L92.2 87l-8.4 13.4-50-33c-6.3-4-11-8-11-16 0-9.3 6.5-15.6 18.6-15.6h32.3c5 0 5-4 5-5.6V20c0-1.5 0-5.6-5-5.6H20.5c-5 0-5 4-5 5.6v80.3H0V20.7C0 4.7 11.7 0 20.5 0h53.7C83 0 94 4 94 20v10c-.3 16-11.5 20-20.3 20m102 50h-53.2c-8.7 0-20.2-4.4-20.2-20.4v-24c0-16 11.7-20.8 20.5-20.8H180v-14c0-1.6 0-5.7-5-5.7h-65V0h65.6c8.7 0 20.2 4.5 20.2 20.5v59.3c0 16-11.6 20.5-20.3 20.5M180 50h-57.4c-5 0-5 4-5 5.4v24.2c0 1.5 0 5.6 5 5.6H175c5 0 5-4 5-5.6V50zm49 50.2c-8.6 0-20-4.5-20-20.5v-59C209 4.7 220.8 0 229.5 0H300v15.2h-69.8c-5 0-5 4-5 5.6v58.8c0 1.5 0 5.6 5 5.6H300v15.2h-70.7z"/></svg>
