<svg version="1.1" viewBox="0 0 35 32" xmlns="http://www.w3.org/2000/svg">
	<path d="m33.012 5.4688h-24.619l-1.0973-4.0058c-0.23346-0.87083-1.0272-1.463-1.9261-1.463h-3.3736c-1.109 0-1.9961 0.89405-1.9961 1.9855 0 1.103 0.89884 1.9855 1.9961 1.9855h1.8444l5.1012 18.566c0.23346 0.87083 1.0272 1.463 1.9261 1.463h18.385c0.91051 0 1.716-0.61538 1.9378-1.4978l3.7471-14.56c0.15175-0.59216 0.023346-1.2308-0.36187-1.7184-0.36187-0.47605-0.94553-0.75472-1.5642-0.75472z"/>
	<path d="m13 26c-1.6525 0-3 1.3475-3 3s1.3475 3 3 3 3-1.3475 3-3-1.3475-3-3-3z"/>
	<path d="m28 26c-1.6525 0-3 1.3475-3 3s1.3475 3 3 3 3-1.3475 3-3-1.3347-3-3-3z"/>
</svg>
