<svg xmlns="http://www.w3.org/2000/svg" viewBox="0 0 214.9 27.1"><style type="text/css">.st0{fill:#0A55A0;}.st1{fill:#E52922;}</style><path class="st0" d="M7.8 22.5h12.4c.1 0 .1.1 0 .1-1.5.6-3.5 2.5-3.5 2.5-1.4 1.2-2.5 2-4.8 2H.1c-.1 0-.1-.1 0-.1 1.3-.7 3.2-2.6 3.2-2.6.8-.8 2.4-1.9 4.5-1.9zM88.9 22.5h12.4c.1 0 .1.1 0 .1-1.4.6-3.4 2.5-3.4 2.5-1.4 1.2-2.5 2-4.8 2H81.2c-.1 0-.1-.1 0-.1 1.3-.7 3.2-2.6 3.2-2.6a7 7 0 0 1 4.5-1.9zM28.1 22.5h12.4c.1 0 .1.1 0 .1-1.4.6-3.4 2.5-3.4 2.5-1.4 1.2-2.5 2-4.8 2H20.5c-.1 0-.1-.1 0-.1 1.3-.7 3.2-2.6 3.2-2.6a6 6 0 0 1 4.4-1.9zM48.3 22.5h12.4c.1 0 .1.1 0 .1-1.4.6-3.4 2.5-3.4 2.5-1.4 1.2-2.5 2-4.8 2H40.7c-.1 0-.1-.1 0-.1 1.3-.7 3.2-2.6 3.2-2.6.8-.8 2.4-1.9 4.4-1.9zM68.6 22.5H81c.1 0 .1.1 0 .1-1.4.6-3.4 2.5-3.4 2.5-1.4 1.2-2.5 2-4.8 2H61c-.1 0-.1-.1 0-.1 1.3-.7 3.2-2.6 3.2-2.6.8-.8 2.4-1.9 4.4-1.9z"/><path class="st1" d="M72 .1c-7.8 0-12.9 3.7-12.9 9.4 0 5.2 4.7 8.7 11.8 8.7 2.3 0 4.3-.3 6.7-.9v-4.4a7.7 7.7 0 0 1-5.9 2.5c-4.2 0-7-2.6-7-6.4 0-3.7 3-6.4 7.1-6.4 2.3 0 4.1.8 5.5 2.2V.6C75.8.2 73.9.1 72 .1zM13.5 3.1c2.9 0 6.3.5 7.8 1.7V.6H.7v4.2c1.5-1.1 4.5-1.6 7.8-1.6v11.4c0 1.7-.1 2.1-.9 3h6.6c-.7-.9-.9-1.4-.9-3V3.1h.2zM34.8 7.3a17 17 0 0 1-4.4.5h-1.7V3.3H31c2.1 0 5.7.4 7 1.6V.6H23.1c.7.9.8 1.4.8 3v11c0 1.7-.1 2.2-.8 3H39v-4.1c-2.2 1.6-6.3 1.6-8 1.5h-2.3v-4.7h1.7c1.2 0 3.2.1 4.4.5V7.3zM56.9 1.2C54.6.5 51.4 0 49.1 0c-4.3 0-8.5 1.3-8.5 5.6 0 7.4 13 3.5 13 8 0 1.5-2.3 2.1-4.1 2.1-3.3 0-5.7-.5-8.6-2.2v3.7c2.2.7 5.1 1.1 8.4 1.1 4.5 0 8.7-1.2 8.7-5.5C58 5 45 8.5 45 4.7c0-1.5 2.1-2.1 3.9-2.1 3.1 0 6.4.9 8.2 2.6v-4h-.2zM83.8 9.2c0-3.6 2.3-6.5 5.8-6.5s5.8 2.9 5.8 6.5c.1 3.5-2.2 6.4-5.7 6.4-3.6 0-5.9-2.9-5.9-6.4zm16.9-.2c0-5.4-4.2-9-10.5-9-6.8.1-11.5 3.9-11.5 9.4 0 5.3 4.3 8.9 10.6 8.9 6.7 0 11.4-3.8 11.4-9.3z"/><path class="st0" d="M113.1 19.1a8.2 8.2 0 0 1-3.2-3.2c-.8-1.4-1.2-3.1-1.2-5.2s.4-3.7 1.2-5.2a8.2 8.2 0 0 1 3.2-3.2 8.8 8.8 0 0 1 4.2-1.1c1.8 0 3.4.4 4.7 1.3 1.3.9 2.2 2.1 2.7 3.7l-2.1.9c-.4-1.2-1-2.1-2-2.7-.9-.7-2.1-1-3.4-1-1.2 0-2.2.3-3.2.8a7 7 0 0 0-2.3 2.5 8 8 0 0 0-.8 3.9c0 1.5.3 2.8.8 3.9A6.2 6.2 0 0 0 114 17c.9.6 2 .8 3.2.8 1.3 0 2.5-.3 3.4-1a6 6 0 0 0 2-2.7l2.1.9a6.8 6.8 0 0 1-2.7 3.7 8.1 8.1 0 0 1-4.7 1.3c-1.5.2-2.9-.1-4.2-.9zM129.8 20h-2.2V1.3h2.2V20zM144.8 20h-2.2v-2.6a5 5 0 0 1-1.8 2 5 5 0 0 1-2.6.8c-1.4 0-2.4-.4-3.2-1.2a4.5 4.5 0 0 1-1.2-3.3V6.4h2.2v8.9c0 .9.2 1.6.7 2.1s1.1.8 2 .8c.8 0 1.4-.2 2-.7s1.1-1.1 1.4-2c.3-.9.5-1.9.5-3V6.4h2.2V20zM152.9 19.6c-.8-.4-1.3-.9-1.7-1.6v2H149V1.3h2.2v7.1c.4-.6 1-1.2 1.7-1.6.8-.4 1.6-.6 2.5-.6 1.2 0 2.3.3 3.2.9.9.6 1.6 1.4 2 2.5s.7 2.3.7 3.6c0 1.3-.2 2.5-.7 3.6a5.8 5.8 0 0 1-2.1 2.5 5.7 5.7 0 0 1-5.6.3zm4.3-2.1c.6-.4 1.1-1 1.4-1.8a7 7 0 0 0 0-5.2c-.3-.8-.8-1.3-1.4-1.8-.6-.4-1.3-.6-2.1-.6s-1.5.2-2.1.6c-.6.4-1.1 1-1.4 1.8a7 7 0 0 0 0 5.2c.4.8.8 1.3 1.4 1.8.6.4 1.3.6 2.1.6a3 3 0 0 0 2.1-.6zM167.2 19.3c-1-.6-1.8-1.5-2.3-2.5a8.6 8.6 0 0 1 0-7.2 5.6 5.6 0 0 1 2.3-2.5c1-.6 2.1-.9 3.4-.9 2.8 0 4.7 1.2 5.8 3.5l-2 1c-.4-.8-.9-1.4-1.5-1.8-.6-.4-1.4-.6-2.3-.6-.9 0-1.6.2-2.3.7-.6.4-1.1 1-1.5 1.8s-.5 1.6-.5 2.5c0 .9.2 1.7.5 2.5.4.8.8 1.4 1.5 1.8.6.4 1.4.7 2.3.7.9 0 1.7-.2 2.3-.6.6-.4 1.1-1 1.5-1.8l2 1c-1.1 2.3-3 3.5-5.8 3.5a9.7 9.7 0 0 1-3.4-1.1zM180.7 19.7c-.7-.3-1.2-.8-1.6-1.4-.4-.6-.6-1.3-.6-2.1 0-1.4.5-2.5 1.6-3.3a7 7 0 0 1 4.3-1.2h2.9V11c0-.9-.3-1.6-.9-2.1s-1.4-.7-2.4-.7c-.8 0-1.5.2-2.1.6s-1.1.9-1.4 1.6l-1.7-1c.5-.9 1.1-1.7 2-2.3.9-.6 2-.9 3.2-.9 1.7 0 3 .4 4 1.3s1.5 2.1 1.5 3.6V20h-1.8l-.4-2.1c-.4.7-1.1 1.2-1.8 1.6-.8.4-1.6.6-2.6.6a4 4 0 0 1-2.2-.4zm4.5-1.9a4 4 0 0 0 2.1-3.6v-.5h-2.8c-1.2 0-2.1.2-2.8.7-.6.4-1 1-1 1.8 0 .7.2 1.2.7 1.6.5.4 1.1.6 1.8.6.7-.2 1.4-.3 2-.6zM193.2 6.4h2.2v2.3c.4-.8.9-1.4 1.7-1.8.7-.4 1.5-.7 2.3-.7 1 0 1.8.3 2.5.8l-.9 1.8c-.3-.2-.6-.4-.9-.4l-.9-.1c-.7 0-1.3.2-1.9.7-.6.5-1 1.1-1.3 2s-.5 1.8-.5 2.9V20h-2.2V6.4zM205.3 19.3a6.4 6.4 0 0 1-2.1-2.5 8.6 8.6 0 0 1-.8-3.6c0-1.3.2-2.5.7-3.6a5.8 5.8 0 0 1 2.1-2.5c.9-.6 1.9-.9 3.1-.9 1 0 1.8.2 2.6.6.7.4 1.3 1 1.7 1.6V1.3h2.2V20h-2.2v-2.1c-.4.7-1 1.2-1.7 1.6-.8.4-1.6.6-2.5.6-1.1.1-2.2-.2-3.1-.8zm5.6-1.8c.6-.4 1.1-1 1.4-1.8a7 7 0 0 0 0-5.2c-.3-.8-.8-1.3-1.4-1.8s-1.3-.6-2.1-.6-1.5.2-2.1.6-1.1 1-1.4 1.8a7 7 0 0 0 0 5.2c.4.8.8 1.3 1.4 1.8s1.3.6 2.1.6a3 3 0 0 0 2.1-.6z"/></svg>