<svg xmlns="http://www.w3.org/2000/svg" viewBox="0 0 101.3 27.1"><path fill="#0A55A0" d="M7.8 22.5h12.4v.1a15 15 0 0 0-3.5 2.5c-1.4 1.2-2.5 2-4.8 2H0c-.1 0-.1-.1 0-.1 1.3-.7 3.2-2.6 3.2-2.6.8-.8 2.4-1.9 4.5-1.9zM88.9 22.5h12.4v.1a16 16 0 0 0-3.4 2.5c-1.4 1.2-2.5 2-4.8 2H81V27c1.4-.7 3.3-2.6 3.3-2.6a7 7 0 0 1 4.5-1.9zM28 22.5h12.5v.1a16 16 0 0 0-3.4 2.5c-1.4 1.2-2.5 2-4.8 2H20.5c-.1 0-.1-.1 0-.1 1.3-.7 3.2-2.6 3.2-2.6a6 6 0 0 1 4.4-1.9zM48.3 22.5h12.4v.1a16 16 0 0 0-3.4 2.5c-1.4 1.2-2.5 2-4.8 2H40.7c-.1 0-.1-.1 0-.1 1.3-.7 3.2-2.6 3.2-2.6.8-.8 2.4-1.9 4.4-1.9zM68.6 22.5H81v.1a16 16 0 0 0-3.4 2.5c-1.4 1.2-2.5 2-4.8 2H61c-.1 0-.1-.1 0-.1 1.3-.7 3.2-2.6 3.2-2.6.8-.8 2.4-1.9 4.4-1.9z"/><path fill="#E52922" d="M72 .1c-7.8 0-13 3.7-13 9.4 0 5.2 4.8 8.7 11.9 8.7 2.3 0 4.3-.3 6.7-.9v-4.4a7.7 7.7 0 0 1-6 2.5c-4.1 0-7-2.6-7-6.4 0-3.7 3-6.4 7.2-6.4 2.3 0 4 .8 5.5 2.2V.6C75.8.2 73.9.1 72 .1zM13.5 3.1c2.9 0 6.3.5 7.8 1.7V.6H.7v4.2c1.5-1.1 4.5-1.6 7.8-1.6v11.4c0 1.7-.1 2.1-1 3h6.7c-.7-.9-1-1.4-1-3V3.1h.3zM34.8 7.3a17 17 0 0 1-4.4.5h-1.7V3.3H31c2 0 5.7.4 7 1.6V.6H23c.8.9.9 1.4.9 3v11c0 1.7-.1 2.2-.8 3H39v-4.1c-2.2 1.6-6.3 1.6-8 1.5h-2.3v-4.7h1.7c1.2 0 3.2.1 4.4.5V7.3zM56.9 1.2C54.6.5 51.4 0 49 0c-4.3 0-8.5 1.3-8.5 5.6 0 7.4 13 3.5 13 8 0 1.5-2.3 2.1-4.1 2.1-3.3 0-5.7-.5-8.6-2.2v3.7c2.2.7 5 1.1 8.4 1.1 4.5 0 8.7-1.2 8.7-5.5C58 5 45 8.5 45 4.7c0-1.5 2-2.1 3.9-2.1 3 0 6.4.9 8.2 2.6v-4h-.2zM83.8 9.2c0-3.6 2.3-6.5 5.8-6.5s5.8 2.9 5.8 6.5c0 3.5-2.2 6.4-5.7 6.4-3.6 0-6-2.9-6-6.4zm16.9-.2c0-5.4-4.2-9-10.5-9-6.8.1-11.5 3.9-11.5 9.4 0 5.3 4.3 8.9 10.6 8.9 6.7 0 11.4-3.8 11.4-9.3z"/></svg>