<svg xmlns="http://www.w3.org/2000/svg" viewBox="0 0 25 20"><path d="M24.8 2.4A10.6 10.6 0 0 1 22.3 5v.7a14.3 14.3 0 0 1-.6 4 14.7 14.7 0 0 1-1.8 3.9 15.2 15.2 0 0 1-2.9 3.3 12.8 12.8 0 0 1-4 2.3 14.8 14.8 0 0 1-5 .8 14 14 0 0 1-7.8-2.3 11 11 0 0 0 1.2 0 9.9 9.9 0 0 0 6.3-2A5 5 0 0 1 3 12a6.7 6.7 0 0 0 1 .1 5.2 5.2 0 0 0 1.2-.2 5 5 0 0 1-2.9-1.7A4.9 4.9 0 0 1 1.2 7a5 5 0 0 0 2.3.6 5 5 0 0 1-1.7-1.8 5 5 0 0 1-.6-2.4A5 5 0 0 1 2 1a14.3 14.3 0 0 0 4.6 3.8 14 14 0 0 0 5.8 1.5 5.7 5.7 0 0 1-.1-1.2 4.9 4.9 0 0 1 1.5-3.6 5 5 0 0 1 7.2.2A9.9 9.9 0 0 0 24.1.4 4.9 4.9 0 0 1 22 3.2a10 10 0 0 0 3-.8z"/></svg>
