<svg xmlns="http://www.w3.org/2000/svg" viewBox="0 0 72 45"><path fill="#00579F" d="M31.1 31.6h-4.7l3-18.1H34m14 .4c-1.3-.5-2.8-.8-4.2-.8-4.6 0-7.9 2.5-7.9 6 0 2.6 2.3 4 4.1 4.9 1.8.9 2.4 1.5 2.4 2.2 0 1.2-1.5 1.8-2.8 1.8-1.5 0-3-.3-4.4-1l-.6-.3-.6 4.2c1.7.6 3.4 1 5.2 1 4.9 0 8.1-2.4 8.1-6.2 0-2.1-1.2-3.6-3.9-4.9-1.6-.8-2.6-1.4-2.6-2.2 0-.8.8-1.6 2.7-1.6 1.2 0 2.4.2 3.5.7l.4.2.6-4zm6.2 11.3c.4-1 1.9-5.1 1.9-5.1s.4-1.1.6-1.7L57 20s.9 4.3 1.1 5.2h-3.9zM60 13.5h-3.6c-1.1-.1-2.1.5-2.4 1.5l-7 16.6h4.9l1-2.7h6c.1.6.6 2.7.6 2.7h4.3L60 13.5zm-37.5 0L18 25.8l-.5-2.5c-1.1-3.2-3.4-5.9-6.5-7.6l4.2 15.8h4.9l7.3-18h-4.9z"/><path fill="#FAA61A" d="M13.7 13.5H6.2l-.1.4c5.9 1.5 9.7 5.1 11.3 9.4L15.8 15c-.2-1-1.1-1.6-2.1-1.5z"/></svg>
