<svg xmlns="http://www.w3.org/2000/svg" viewBox="0 0 72 45" fill="#1A1F71"><path d="M45.2 35.2h-.1c-.9.1-1.6.9-1.5 1.9v.2c.1.9.8 1.6 1.7 1.5.4 0 .8-.1 1.2-.2l-.1-.5c-.3.1-.6.2-1 .2h-.2c-.6-.1-1.1-.6-1-1.2h2.5v-.3-.2c-.1-.7-.7-1.4-1.5-1.4zm-1.1 1.5c0-.5.4-1 1-1h.1c.5.1.8.5.8 1h-1.9zM49.2 35.7c.3 0 .5.1.7.2l.1-.5c-.3-.1-.6-.2-.9-.2h-.2c-1 0-1.7.9-1.7 1.9v.2c0 .9.8 1.6 1.7 1.6.3 0 .7-.1 1-.2l.1-.5c-.2.1-.5.2-.8.2h-.1c-.7-.1-1.1-.6-1.1-1.3V37c0-.8.6-1.3 1.2-1.3zM38.8 36.5h1.9V36h-1.9v-1.6h2v-.5h-2.6v4.9h2.7v-.5h-2.1M41.9 33.6h.6v5.1h-.6zM57.7 35.2h-.2c-.9.1-1.6.9-1.6 1.8v.1c0 .9.8 1.7 1.7 1.7h.2c.9-.1 1.6-.9 1.6-1.9v-.2c-.1-.8-.8-1.5-1.7-1.5zm-.1 3.2c-.6 0-1.1-.6-1.1-1.3 0-.7.3-1.4 1.1-1.4s1.1.7 1.1 1.3c0 .8-.5 1.4-1.1 1.4zM62.1 35.2c-.5 0-.9.2-1.2.7v-.6h-.6v3.5h.7v-2.1-.3c.1-.4.5-.6.9-.7.6 0 .8.5.8 1v2h.6v-2.1c0-1.1-.8-1.4-1.2-1.4zM54.3 36l-.1-.7h-.6v3.5h.6v-1.9-.3c0-.4.4-.8.9-.8h.2v-.6h-.2c-.3 0-.7.3-.8.8zM51.9 34.4l-.6.2v.7h-.5v.5h.5v1.9c0 .3.1.7.2.9.2.2.4.3.7.3.2 0 .4 0 .6-.1v-.5h-.4c-.4 0-.5-.2-.5-.7v-1.9h.9v-.5h-.9v-.8zM29.3 13.5l-2.9 18.1h4.7L34 13.5M47.3 25.7c0-2.1-1.2-3.6-3.9-4.9-1.6-.8-2.6-1.4-2.6-2.2 0-.8.8-1.6 2.7-1.6 1.2 0 2.4.2 3.5.7l.4.2.6-3.9c-1.3-.5-2.8-.8-4.2-.8-4.6 0-7.9 2.5-7.9 6 0 2.6 2.3 4 4.1 4.9 1.8.9 2.4 1.5 2.4 2.2 0 1.2-1.5 1.8-2.8 1.8-1.5 0-3-.3-4.4-1l-.6-.3-.6 4.1c1.7.6 3.4 1 5.2 1 4.9-.1 8.1-2.5 8.1-6.2zM60 13.5h-3.6c-1.1-.1-2.1.5-2.4 1.5l-7 16.6h4.9s.8-2.2 1-2.7h6c.1.6.6 2.7.6 2.7h4.3L60 13.5zm-5.8 11.7c.4-1 1.9-5.1 1.9-5.1s.4-1.1.6-1.7L57 20s.9 4.3 1.1 5.2h-3.9zM22.5 13.5L18 25.8l-.5-2.5-1.7-8.3c-.2-1-1.1-1.6-2.1-1.5H6.2l-.1.4c1.7.4 3.4 1.1 4.9 2l4.1 15.6H20l7.3-18h-4.8z"/></svg>
