<svg xmlns="http://www.w3.org/2000/svg" viewBox="0 0 17 20"><path d="M16.8 14.2a19.2 19.2 0 0 1-.3 4 2.1 2.1 0 0 1-.7 1 2 2 0 0 1-1.1.6 59.7 59.7 0 0 1-6.2.2 59.7 59.7 0 0 1-6.2-.2 2 2 0 0 1-1.1-.5 2 2 0 0 1-.7-1.1 19 19 0 0 1-.3-4 19.3 19.3 0 0 1 .3-3.9 2.1 2.1 0 0 1 .7-1 2 2 0 0 1 1.1-.6q2-.2 6.2-.2t6.2.2a2 2 0 0 1 1.1.5 2 2 0 0 1 .7 1.1 18.8 18.8 0 0 1 .3 4zm-13-2.7H5v-1H1.5v1h1.1v6.3h1.2zM5.6 0h1.2L5.4 4.5v3h-1v-3A19.1 19.1 0 0 0 3.5 2L3 0h1.2L5 3zM7 17.8h1v-5.5H7v4.2c-.2.3-.4.5-.6.5s-.2 0-.3-.2a2.5 2.5 0 0 1 0-.4v-4.1h-1v4.4a2.7 2.7 0 0 0 .1.8.6.6 0 0 0 .7.4 1.6 1.6 0 0 0 1.1-.7zm2.8-14v2A2.2 2.2 0 0 1 9.4 7a1.4 1.4 0 0 1-1.1.6A1.4 1.4 0 0 1 7 7a2.2 2.2 0 0 1-.3-1.3v-2A2.2 2.2 0 0 1 7 2.4a1.4 1.4 0 0 1 1.2-.6 1.4 1.4 0 0 1 1.1.6 2.2 2.2 0 0 1 .4 1.3zm-1 2V3.6q0-.8-.5-.8c-.3 0-.5.3-.5.8V6c0 .5.2.7.5.7s.4-.2.4-.7zm3 10.4V14a3.9 3.9 0 0 0-.1-1.1.8.8 0 0 0-.8-.6 1.3 1.3 0 0 0-1 .6v-2.5h-1v7.4h1v-.5a1.4 1.4 0 0 0 1 .6.8.8 0 0 0 .8-.6 4 4 0 0 0 0-1.1zm-1-2.3v2.3c0 .5-.2.8-.5.8a.7.7 0 0 1-.5-.2v-3.4a.7.7 0 0 1 .5-.3c.3 0 .5.3.5.8zm2.7-12v5.6h-1v-.6a1.6 1.6 0 0 1-1.2.6.6.6 0 0 1-.6-.4 2.9 2.9 0 0 1-.1-.8V1.9h1V6a3.3 3.3 0 0 0 0 .4c0 .1 0 .2.2.2s.4-.1.7-.4V1.9zm2 14.1h-1a5.2 5.2 0 0 1 0 .7.4.4 0 0 1-.5.4c-.3 0-.5-.3-.5-.8v-1h2v-1.1a2.2 2.2 0 0 0-.3-1.3 1.5 1.5 0 0 0-2.4 0 2.1 2.1 0 0 0-.3 1.3V16a2.1 2.1 0 0 0 .3 1.3 1.4 1.4 0 0 0 1.2.6 1.4 1.4 0 0 0 1.5-1.2 4.6 4.6 0 0 0 0-.7zm-1-2.1v.5h-1v-.5c0-.5.2-.8.5-.8s.5.3.5.8z"/></svg>
